<svg xmlns="http://www.w3.org/2000/svg" xmlns:xlink="http://www.w3.org/1999/xlink" width="500" zoomAndPan="magnify" viewBox="0 0 375 374.999991" height="500" preserveAspectRatio="xMidYMid meet" version="1.0"><defs><clipPath id="fc0d735914"><path d="M 264 169 L 314.703125 169 L 314.703125 192 L 264 192 Z M 264 169 " clip-rule="nonzero"/></clipPath><clipPath id="9dbf8d704a"><path d="M 70.203125 127 L 119 127 L 119 154 L 70.203125 154 Z M 70.203125 127 " clip-rule="nonzero"/></clipPath></defs><path fill="#ffffff" d="M 221.90625 150.496094 C 221.640625 150.65625 221.378906 150.816406 221.117188 150.976562 C 221.945312 152.300781 222.773438 153.628906 223.601562 154.953125 C 223.859375 154.796875 224.113281 154.640625 224.371094 154.484375 C 223.550781 153.15625 222.730469 151.828125 221.90625 150.496094 Z M 144.066406 197.683594 C 144.371094 197.511719 144.671875 197.335938 144.972656 197.164062 C 144.546875 194.933594 144.121094 192.699219 143.691406 190.46875 C 143.390625 190.535156 143.09375 190.601562 142.792969 190.664062 C 143.21875 193.003906 143.644531 195.34375 144.066406 197.683594 Z M 224.992188 156.835938 C 224.613281 156.945312 224.378906 157.292969 224.417969 157.667969 C 224.683594 160.296875 224.945312 162.925781 228.042969 164.746094 L 225.957031 157.371094 C 225.839844 156.957031 225.410156 156.71875 224.992188 156.835938 Z M 208.828125 172.851562 C 203.21875 171.917969 199.71875 174.117188 196.738281 177.582031 C 195.226562 179.34375 195.164062 181.003906 196.234375 183.019531 C 199.253906 188.726562 206.949219 193.105469 213.320312 192.667969 C 216.515625 192.445312 218.855469 190.964844 220.042969 188.003906 C 223.171875 180.199219 225.082031 172.515625 222.402344 163.832031 C 220.585938 157.960938 218.703125 152.929688 213.949219 148.636719 C 209.28125 144.417969 204.1875 143.03125 198.308594 142.707031 C 191.046875 142.304688 184.65625 144.808594 178.050781 147.457031 C 168.792969 151.171875 163.15625 157.214844 161.929688 167.15625 C 161.074219 174.089844 160.164062 181.019531 159.511719 187.972656 C 158.859375 194.96875 161.738281 201.382812 163.367188 207.980469 C 164.054688 210.757812 165.328125 213.398438 166.40625 216.070312 C 168.386719 220.960938 170.8125 225.558594 174.855469 229.148438 C 175.972656 230.140625 176.777344 231.488281 177.722656 232.671875 C 177.460938 233.023438 177.195312 233.378906 176.933594 233.730469 C 175.339844 232.804688 173.628906 232.03125 172.171875 230.929688 C 164.984375 225.472656 157.871094 219.925781 150.722656 214.417969 C 145.304688 210.238281 142.441406 204.34375 140.609375 198.078125 C 137.914062 188.851562 137.8125 179.222656 137.515625 169.703125 C 137.207031 159.878906 140.597656 150.753906 144.882812 142.234375 C 146.957031 138.101562 151.175781 134.8125 154.960938 131.820312 C 160.640625 127.332031 167.550781 124.917969 174.234375 122.351562 C 184.339844 118.46875 194.816406 119.113281 205.179688 121.253906 C 209.75 122.195312 214.410156 123.410156 218.574219 125.4375 C 225.316406 128.730469 231.570312 132.804688 236.277344 139.035156 C 242.40625 147.160156 247.359375 155.84375 250.460938 165.503906 C 253.722656 175.671875 254.730469 186.253906 251.617188 196.433594 C 249.660156 202.84375 247.167969 209.648438 240.886719 213.796875 C 238.199219 215.570312 235.957031 218.0625 233.1875 219.664062 C 225.132812 224.320312 216.476562 225.234375 207.496094 222.871094 C 204.171875 222 200.878906 220.992188 197.574219 220.042969 C 195.15625 219.34375 192.855469 218.695312 191.261719 216.304688 C 190.472656 215.117188 188.582031 214.644531 187.15625 213.910156 C 184.25 212.417969 181.871094 210.65625 180.910156 207.171875 C 178.917969 199.964844 174.65625 193.441406 174.441406 185.683594 C 174.210938 177.4375 177.070312 170.082031 181.109375 163.128906 C 182.574219 160.597656 184.695312 158.644531 187.976562 158.445312 C 191.1875 158.253906 194.378906 157.734375 197.589844 157.585938 C 198.574219 157.539062 199.773438 158.011719 200.570312 158.632812 C 204.917969 162.027344 207.636719 166.433594 208.828125 172.851562 " fill-opacity="1" fill-rule="nonzero"/><path fill="#ffffff" d="M 264.164062 148.796875 C 262.015625 145.050781 260.15625 141.8125 258.394531 138.746094 C 258.777344 137.898438 258.886719 137.304688 259.238281 136.933594 C 262.753906 133.257812 266.839844 130.164062 269.792969 125.886719 C 271.203125 123.84375 273.640625 123.066406 276.242188 122.425781 C 279.078125 121.730469 281.613281 119.761719 284.226562 118.269531 C 285.113281 117.761719 285.808594 116.511719 286.667969 116.433594 C 291.835938 115.96875 297.023438 115.601562 302.203125 115.582031 C 303.011719 115.582031 304.378906 117.445312 304.542969 118.582031 C 305.332031 124.046875 304.058594 129.460938 299.816406 132.804688 C 290.285156 140.304688 279.960938 146.621094 267.761719 149.027344 C 267.066406 149.164062 266.332031 149.179688 265.621094 149.136719 C 265.09375 149.109375 264.574219 148.898438 264.164062 148.796875 " fill-opacity="1" fill-rule="nonzero"/><path fill="#ffffff" d="M 218.417969 55.019531 C 220.242188 57.773438 221.671875 59.386719 222.460938 61.269531 C 223.472656 63.679688 224.378906 66.265625 224.609375 68.835938 C 225.492188 78.714844 223.183594 88.234375 220.832031 97.722656 C 220.4375 99.300781 220.019531 100.875 219.523438 102.421875 C 217.949219 107.304688 216.59375 108.160156 211.289062 107.726562 C 210.566406 107.667969 209.800781 107.488281 209.128906 107.65625 C 203.574219 109.007812 202.484375 106.839844 201.78125 101.730469 C 201.125 96.929688 201.15625 91.996094 201.308594 87.132812 C 201.550781 79.601562 205.511719 73.363281 209.277344 67.222656 C 211.875 62.988281 215.230469 59.21875 218.417969 55.019531 " fill-opacity="1" fill-rule="nonzero"/><path fill="#ffffff" d="M 232.777344 238.605469 C 236.816406 235.753906 239.449219 236.207031 243.027344 238.785156 C 250.378906 244.082031 255.574219 250.582031 258.410156 259.109375 C 260.34375 264.925781 262.578125 270.652344 264.257812 276.535156 C 265.292969 280.175781 264.625 280.804688 261.097656 282.132812 C 258.804688 282.996094 256.21875 285.011719 254.320312 284.488281 C 252.351562 283.941406 251.148438 280.875 249.453125 279.0625 C 246.882812 276.324219 243.503906 274.117188 241.648438 270.984375 C 235.769531 261.0625 232.21875 250.351562 232.777344 238.605469 " fill-opacity="1" fill-rule="nonzero"/><g clip-path="url(#fc0d735914)"><path fill="#ffffff" d="M 264.78125 183.6875 C 265.476562 181.601562 266.199219 180.269531 266.332031 178.882812 C 266.839844 173.601562 270.371094 171.429688 274.917969 170.503906 C 285.25 168.394531 295.492188 169.019531 305.355469 172.726562 C 308.101562 173.757812 310.5625 175.875 312.769531 177.90625 C 314.929688 179.894531 314.386719 182.9375 311.890625 184.902344 C 307.109375 188.671875 301.8125 191.070312 295.617188 191.554688 C 287.179688 192.210938 278.964844 191.660156 271.253906 187.910156 C 268.917969 186.769531 266.863281 185.066406 264.78125 183.6875 " fill-opacity="1" fill-rule="nonzero"/></g><path fill="#ffffff" d="M 156.730469 60.507812 C 162.132812 62.761719 166.511719 65.839844 169.84375 70.140625 C 172.476562 73.542969 174.617188 77.324219 176.980469 80.9375 C 181.335938 87.609375 182.285156 95.058594 181.523438 102.734375 C 181.261719 105.378906 179.902344 107.914062 178.824219 111.15625 C 177.070312 110.445312 174.882812 110.027344 173.28125 108.832031 C 159.785156 98.769531 153.347656 85.050781 152.832031 68.40625 C 152.800781 67.453125 153.253906 66.390625 153.75 65.535156 C 154.257812 64.652344 155.203125 64.027344 155.761719 63.164062 C 156.203125 62.484375 156.347656 61.609375 156.730469 60.507812 " fill-opacity="1" fill-rule="nonzero"/><path fill="#ffffff" d="M 258.566406 215.851562 C 261.097656 213.703125 263.292969 211.398438 265.914062 209.792969 C 267.144531 209.035156 269.40625 209.089844 270.84375 209.667969 C 279.789062 213.238281 287.382812 218.675781 294.203125 225.609375 C 298.132812 229.609375 300.039062 233.972656 301.21875 239.078125 C 301.769531 241.460938 301.089844 242.882812 298.632812 243.4375 C 292.136719 244.902344 285.839844 243.765625 280.46875 240.308594 C 271.570312 234.582031 264.410156 226.941406 259.207031 217.617188 C 258.867188 217.007812 258.722656 216.296875 258.566406 215.851562 " fill-opacity="1" fill-rule="nonzero"/><path fill="#ffffff" d="M 234.089844 112.296875 C 234.890625 109.953125 235.195312 108.09375 236.09375 106.589844 C 238.679688 102.277344 241.273438 97.929688 244.292969 93.917969 C 247.644531 89.453125 251.378906 85.269531 255.117188 81.109375 C 257.085938 78.914062 259.421875 77.125 262.632812 79.15625 C 262.910156 79.328125 263.347656 79.226562 263.695312 79.316406 C 271.058594 81.164062 272.144531 83.398438 268.179688 90.207031 C 264.464844 96.585938 260.402344 102.78125 256.199219 108.851562 C 252.742188 113.839844 248.917969 118.578125 245.125 123.320312 C 243.324219 125.574219 241.058594 125.898438 239.71875 123.730469 C 237.433594 120.035156 235.828125 115.917969 234.089844 112.296875 " fill-opacity="1" fill-rule="nonzero"/><path fill="#ffffff" d="M 108.726562 258.34375 C 103.550781 258.566406 102.726562 257.328125 103.144531 253.414062 C 103.511719 249.972656 104.996094 247.460938 107.320312 245.042969 C 112.445312 239.730469 117.175781 234.023438 122.445312 228.863281 C 124.972656 226.390625 128.347656 224.769531 131.367188 222.808594 C 133.507812 221.417969 135.5 221.925781 137.3125 223.492188 C 138.796875 224.777344 140.371094 225.992188 141.664062 227.453125 C 143.839844 229.902344 143.019531 232.898438 141.617188 235.019531 C 138.355469 239.945312 135.039062 245.050781 130.769531 249.039062 C 124.414062 254.972656 116.273438 257.609375 108.726562 258.34375 " fill-opacity="1" fill-rule="nonzero"/><g clip-path="url(#9dbf8d704a)"><path fill="#ffffff" d="M 70.199219 134.296875 C 75.707031 127.890625 81.429688 125.9375 88.644531 128.976562 C 94.804688 131.578125 101.210938 133.617188 107.308594 136.351562 C 110.386719 137.734375 113.035156 140.089844 115.855469 142.039062 C 116.441406 142.445312 117.007812 142.945312 117.445312 143.507812 C 120.40625 147.332031 118.496094 152.640625 113.769531 152.90625 C 100.773438 153.628906 88.46875 151.558594 78.363281 142.445312 C 75.582031 139.9375 73.050781 137.160156 70.199219 134.296875 " fill-opacity="1" fill-rule="nonzero"/></g><path fill="#ffffff" d="M 204.914062 298.734375 C 202.363281 294.980469 200.082031 291.199219 199.273438 286.621094 C 198.808594 283.972656 197.925781 281.394531 197.148438 278.804688 C 193.769531 267.5625 196.253906 257.496094 203.175781 248.285156 C 204.308594 246.773438 205.320312 245.171875 206.582031 243.328125 C 211.628906 247.273438 213.898438 252.238281 214.308594 257.886719 C 214.644531 262.527344 214.355469 267.246094 213.976562 271.898438 C 213.375 279.21875 213.347656 286.605469 210.699219 293.679688 C 209.613281 296.589844 208.03125 298.140625 204.914062 298.734375 " fill-opacity="1" fill-rule="nonzero"/><path fill="#ffffff" d="M 151.355469 294.902344 C 150.765625 293.085938 149.886719 291.324219 149.652344 289.480469 C 148.351562 279.199219 150.039062 269.378906 154.613281 260.070312 C 154.933594 259.421875 155.238281 258.765625 155.589844 258.136719 C 160.089844 250.070312 161.054688 247.613281 172.371094 250.878906 C 174.550781 262.160156 171.183594 272.570312 166.386719 282.53125 C 163.628906 288.253906 157.59375 292.652344 151.355469 294.902344 " fill-opacity="1" fill-rule="nonzero"/><path fill="#ffffff" d="M 116.054688 79.128906 C 117.652344 79.496094 119.238281 79.402344 120.160156 80.140625 C 128.371094 86.71875 136.082031 93.738281 139.222656 104.339844 C 141.144531 110.832031 140.957031 117.394531 139.789062 123.964844 C 139.351562 126.425781 137.996094 127.15625 135.964844 125.816406 C 133.269531 124.039062 130.261719 122.300781 128.394531 119.796875 C 124.425781 114.484375 120.480469 108.972656 117.683594 103.003906 C 114.257812 95.703125 114.136719 87.726562 116.054688 79.128906 " fill-opacity="1" fill-rule="nonzero"/><path fill="#ffffff" d="M 73.457031 201.714844 C 75.128906 199.726562 76 198.128906 77.339844 197.191406 C 86.867188 190.523438 97.667969 187.253906 109.070312 185.722656 C 111.878906 185.347656 114.703125 185.113281 117.445312 184.824219 C 118.96875 188.945312 118.917969 192.5 118.0625 196.199219 C 117.496094 198.660156 116.617188 200.25 114.105469 201.414062 C 107.503906 204.46875 100.878906 207.3125 93.523438 207.675781 C 91.097656 207.796875 88.515625 207.511719 86.214844 206.769531 C 82.148438 205.457031 78.246094 203.644531 73.457031 201.714844 " fill-opacity="1" fill-rule="nonzero"/></svg>