<svg width="1441" height="661" viewBox="0 0 1441 661" fill="none" xmlns="http://www.w3.org/2000/svg">
<path d="M0 125.536C0 78.555 32.7037 37.909 78.5955 27.8531L105.828 21.8857C133.142 15.9006 161.158 13.7635 189.064 15.5364L630.69 43.5942C646.206 44.58 661.776 44.3581 677.259 42.9304L1120.88 2.02153C1138.92 0.357982 1157.08 0.331944 1175.12 1.94374L1441 25.6927V650.712L1298.11 626.846C1260.97 620.644 1223.25 618.656 1185.67 620.92L877.959 639.457C853.685 640.919 829.337 640.608 805.109 638.527L308.38 595.866C232.786 589.374 156.704 600.171 85.9005 627.439L0 660.521V125.536Z" fill="#D4F9FF"/>
</svg>
