<svg xmlns="http://www.w3.org/2000/svg" xmlns:xlink="http://www.w3.org/1999/xlink" width="500" zoomAndPan="magnify" viewBox="0 0 375 374.999991" height="500" preserveAspectRatio="xMidYMid meet" version="1.0"><defs><clipPath id="f85d9ae507"><path d="M 34 44 L 341 44 L 341 334.179688 L 34 334.179688 Z M 34 44 " clip-rule="nonzero"/></clipPath></defs><path fill="#c3f498" d="M 191.09375 94.148438 C 246.238281 94.148438 290.9375 137.753906 290.9375 191.550781 C 290.9375 245.347656 246.238281 288.949219 191.09375 288.949219 C 135.953125 288.949219 91.253906 245.339844 91.253906 191.550781 C 91.253906 137.761719 135.953125 94.148438 191.09375 94.148438 Z M 191.09375 94.148438 " fill-opacity="1" fill-rule="nonzero"/><g clip-path="url(#f85d9ae507)"><path fill="#c3f498" d="M 181.96875 88.390625 C 179.117188 86.425781 179.65625 82.761719 178.976562 79.789062 C 177.203125 71.882812 175.203125 63.855469 176.3125 55.695312 C 176.101562 49.121094 181.230469 40.9375 188.289062 45.886719 C 193.601562 50.128906 194.265625 63.816406 193.90625 70.183594 C 193.90625 70.140625 193.90625 70.09375 193.914062 70.042969 C 193.914062 69.980469 193.921875 69.921875 193.953125 69.5 C 193.914062 70.09375 193.882812 70.539062 193.84375 71.160156 C 193.882812 70.589844 193.886719 70.480469 193.921875 70.011719 C 193.90625 74.566406 192.050781 78.902344 192.0625 83.425781 C 192.289062 88.453125 185.828125 91.601562 181.96875 88.382812 Z M 65.6875 191.851562 C 68.445312 191.761719 71.269531 191.703125 73.902344 190.773438 C 78.667969 189.269531 79.191406 183.644531 75.535156 180.597656 C 66.253906 172.804688 50.15625 173.210938 39.394531 177.484375 C 31.617188 181.933594 34.242188 190.769531 42.621094 192.011719 C 50.148438 191.8125 58.035156 192.042969 65.6875 191.851562 Z M 326.867188 199.632812 C 330.789062 199.632812 335.136719 200.851562 338.421875 197.976562 C 343.347656 194.324219 338.082031 188.105469 333.503906 187.378906 C 328.519531 186.386719 323.425781 185.023438 318.328125 185.917969 C 314.722656 186.707031 302.09375 188.902344 302.238281 193.503906 C 302.582031 198.707031 313.433594 198.789062 317.445312 199.769531 C 320.578125 200.300781 323.742188 200.03125 326.867188 199.632812 Z M 203.011719 307.316406 C 199.398438 291.167969 193.902344 301.894531 193.234375 311.625 C 193.140625 318.699219 189.609375 332.414062 199.480469 334.015625 C 210.34375 332.117188 204.234375 314.546875 203.003906 307.316406 Z M 90.449219 297.964844 C 93.914062 295.4375 97.386719 292.902344 100.371094 289.796875 C 103.367188 285.972656 114.488281 277.183594 110.125 272.210938 C 107.378906 269.707031 103.585938 272.1875 100.714844 273.257812 C 95.5 275.605469 91.332031 279.65625 87.539062 283.851562 C 84.164062 287.753906 76.394531 293.363281 81.632812 298.738281 C 84.285156 300.710938 88.027344 299.976562 90.449219 297.96875 Z M 281.089844 113.125 C 283.929688 111.183594 286.652344 109.726562 289.285156 106.847656 C 291.097656 104.839844 292.539062 102.527344 294.433594 100.59375 C 296.242188 98.664062 298.699219 97.179688 299.476562 94.507812 C 301.011719 90.554688 297.324219 87.742188 293.640625 89.113281 C 290.417969 90.3125 288.125 93.164062 285.441406 95.226562 C 280.96875 99.109375 278.066406 104.308594 274.558594 108.992188 C 272.746094 111.105469 268.957031 115.679688 273.539062 116.921875 C 276.484375 117.074219 278.714844 114.527344 281.089844 113.117188 Z M 113.414062 93.636719 C 111.023438 90.054688 108.023438 86.726562 104.554688 84.175781 C 97.242188 79.753906 90.359375 87.570312 94.105469 94.707031 C 96.359375 99.972656 100.371094 104.1875 105.140625 107.273438 C 107.910156 109.101562 110.371094 111.976562 113.847656 112.296875 C 123.410156 112.175781 115.628906 98.070312 113.414062 93.644531 Z M 298.476562 284.25 C 292.761719 275.355469 283.351562 268.796875 273.710938 264.683594 C 268.402344 262.976562 267.535156 268.042969 271.105469 271.066406 C 275.230469 276.050781 278.777344 281.511719 283.511719 285.972656 C 286.066406 288.257812 288.097656 291.390625 291.429688 292.582031 C 297.40625 295.0625 301 289.550781 298.46875 284.25 Z M 298.476562 284.25 " fill-opacity="1" fill-rule="nonzero"/></g><path fill="#ffffff" d="M 246.078125 160.871094 C 243.945312 159.296875 244.628906 156.195312 243.945312 153.914062 C 242.789062 148.558594 239.390625 142.496094 233.425781 141.820312 C 234.238281 150.007812 227.117188 159.898438 218.507812 154.773438 C 210.914062 147.917969 220.75 139.304688 228.160156 138.421875 C 225.679688 128.171875 208.890625 123.085938 200.558594 128.625 C 199.578125 132.617188 194.316406 125.21875 207.390625 123.25 C 217.929688 121.777344 230.851562 126.503906 232.933594 138.0625 C 239.480469 138.316406 244.316406 143.742188 246.191406 149.667969 C 246.832031 152.199219 249.316406 159.808594 246.078125 160.878906 Z M 223.054688 151.96875 C 227.730469 151.496094 229.09375 146.035156 228.851562 142.070312 C 226.085938 142.730469 223.222656 143.800781 221.246094 145.925781 C 219.058594 147.933594 219.460938 152.320312 223.054688 151.96875 Z M 141.910156 244.332031 C 131.957031 242.449219 123.179688 233.570312 123.558594 223.078125 C 115.019531 219.039062 110.535156 208.3125 114.515625 199.570312 C 115.789062 196.785156 118.203125 192.761719 121.777344 193.472656 C 123.46875 194.082031 123.910156 196.789062 121.554688 196.488281 C 115.230469 202.003906 117.71875 213.316406 124.816406 217.101562 C 127.230469 210.0625 138.082031 207.191406 141.539062 214.855469 C 143.949219 221.996094 134.707031 226.046875 128.835938 224.785156 C 129.234375 232.074219 135.511719 237.75 142.210938 239.671875 C 145.378906 240.605469 148.828125 238.835938 151.847656 239.972656 C 152.761719 240.277344 153.152344 241.15625 152.582031 241.976562 C 150.414062 245.140625 145.292969 244.480469 141.90625 244.332031 Z M 132.46875 219.132812 C 142.929688 217.449219 132.164062 212.066406 129.695312 218.984375 C 130.613281 219.144531 131.539062 219.179688 132.46875 219.132812 Z M 132.46875 219.132812 " fill-opacity="1" fill-rule="nonzero"/><path fill="#ffffff" d="M 248.304688 234.53125 C 245.082031 232.757812 246.628906 228.753906 247.230469 225.949219 C 247.671875 224.007812 247.652344 222.007812 247.863281 220.050781 C 248.113281 219.0625 249.34375 218.558594 250.214844 219.09375 C 251.796875 220.253906 251.636719 222.597656 251.867188 224.367188 C 251.875 227.613281 253.128906 234.558594 248.304688 234.53125 Z M 268.003906 227.34375 C 268.023438 224.597656 269.515625 219.824219 265.339844 219.640625 C 261.996094 219.902344 262.496094 222.496094 262.214844 224.929688 C 261.269531 227.648438 259.984375 232.1875 263.539062 233.515625 C 266.640625 233.609375 268.132812 229.996094 268.011719 227.339844 Z M 132.480469 147.527344 C 134.089844 146.074219 133.917969 143.800781 134.578125 141.90625 C 134.972656 139.445312 137.664062 138.363281 137.195312 136.613281 C 134.28125 131.007812 125.941406 144.699219 129.441406 147.535156 C 130.195312 148.746094 131.648438 148.546875 132.480469 147.535156 Z M 147.953125 144.671875 C 147.832031 143.230469 148.9375 141.390625 147.652344 140.277344 C 145.003906 138.828125 143.757812 143.011719 142.589844 144.679688 C 141.285156 146.703125 141.175781 150.125 143.511719 151.429688 C 147.050781 152.039062 148.195312 147.40625 147.953125 144.671875 Z M 147.953125 144.671875 " fill-opacity="1" fill-rule="nonzero"/></svg>