<svg width="500" height="500" viewBox="0 0 500 500" fill="none" xmlns="http://www.w3.org/2000/svg">
<path d="M254.792 125.531C328.318 125.531 387.917 183.672 387.917 255.401C387.917 327.13 328.318 385.266 254.792 385.266C181.271 385.266 121.672 327.12 121.672 255.401C121.672 183.682 181.271 125.531 254.792 125.531Z" fill="#FF9358"/>
<mask id="mask0_1279_58" style="mask-type:luminance" maskUnits="userSpaceOnUse" x="45" y="58" width="410" height="388">
<path d="M45.3335 58.6665H454.667V445.573H45.3335V58.6665Z" fill="white"/>
</mask>
<g mask="url(#mask0_1279_58)">
<path d="M242.625 117.854C238.823 115.234 239.542 110.349 238.636 106.385C236.271 95.8436 233.605 85.1405 235.084 74.2603C234.802 65.4946 241.641 54.5832 251.052 61.1821C258.136 66.8384 259.021 85.0884 258.542 93.578C258.542 93.5207 258.542 93.4582 258.552 93.3905C258.552 93.3071 258.563 93.229 258.605 92.6665C258.552 93.4582 258.511 94.0519 258.459 94.8801C258.511 94.1196 258.516 93.9738 258.563 93.3488C258.542 99.4217 256.068 105.203 256.084 111.234C256.386 117.937 247.771 122.135 242.625 117.844V117.854ZM87.5837 255.802C91.2608 255.682 95.0264 255.604 98.5369 254.364C104.891 252.359 105.589 244.859 100.714 240.797C88.3389 230.406 66.8754 230.948 52.5264 236.646C42.1566 242.578 45.6566 254.359 56.8285 256.015C66.865 255.75 77.3806 256.057 87.5837 255.802ZM435.823 266.177C441.053 266.177 446.849 267.802 451.23 263.969C457.797 259.099 450.776 250.807 444.672 249.838C438.026 248.515 431.235 246.698 424.438 247.89C419.631 248.943 402.792 251.87 402.985 258.005C403.443 264.943 417.912 265.052 423.261 266.359C427.438 267.068 431.657 266.708 435.823 266.177ZM270.683 409.755C265.865 388.224 258.537 402.526 257.646 415.5C257.521 424.932 252.813 443.219 265.974 445.354C280.459 442.823 272.313 419.396 270.672 409.755H270.683ZM120.599 397.286C125.219 393.917 129.849 390.536 133.829 386.396C137.823 381.297 152.651 369.578 146.834 362.948C143.172 359.609 138.115 362.917 134.287 364.344C127.334 367.474 121.776 372.875 116.719 378.469C112.219 383.672 101.86 391.151 108.844 398.318C112.381 400.948 117.37 399.969 120.599 397.292V397.286ZM374.787 150.833C378.573 148.245 382.204 146.302 385.714 142.463C388.131 139.786 390.052 136.703 392.579 134.125C394.99 131.552 398.266 129.573 399.303 126.01C401.349 120.739 396.433 116.989 391.521 118.818C387.224 120.417 384.167 124.219 380.589 126.969C374.625 132.146 370.756 139.078 366.079 145.323C363.662 148.14 358.61 154.239 364.719 155.896C368.646 156.099 371.62 152.703 374.787 150.823V150.833ZM151.219 124.849C148.032 120.073 144.032 115.635 139.407 112.234C129.657 106.338 120.48 116.76 125.474 126.276C128.48 133.297 133.829 138.917 140.188 143.031C143.881 145.469 147.162 149.302 151.797 149.729C164.547 149.568 154.172 130.76 151.219 124.859V124.849ZM397.969 379C390.349 367.14 377.802 358.396 364.948 352.911C357.87 350.635 356.714 357.39 361.474 361.422C366.974 368.068 371.704 375.349 378.016 381.297C381.422 384.344 384.131 388.521 388.573 390.109C396.542 393.417 401.334 386.068 397.959 379H397.969Z" fill="#FF9358"/>
</g>
<path d="M328.104 214.495C325.261 212.396 326.172 208.26 325.261 205.219C323.719 198.078 319.188 189.995 311.235 189.094C312.318 200.01 302.823 213.198 291.344 206.365C281.219 197.224 294.334 185.74 304.214 184.562C300.906 170.896 278.521 164.115 267.412 171.5C266.104 176.823 259.089 166.958 276.521 164.333C290.573 162.37 307.802 168.672 310.578 184.083C319.307 184.422 325.755 191.656 328.255 199.557C329.11 202.932 332.422 213.078 328.104 214.505V214.495ZM297.406 202.625C303.641 201.995 305.459 194.714 305.136 189.427C301.448 190.307 297.63 191.734 294.995 194.568C292.078 197.245 292.615 203.094 297.406 202.625ZM189.214 325.776C175.943 323.266 164.24 311.427 164.745 297.437C153.36 292.052 147.38 277.75 152.688 266.094C154.386 262.38 157.604 257.016 162.37 257.964C164.625 258.776 165.214 262.385 162.073 261.984C153.641 269.339 156.958 284.422 166.422 289.469C169.641 280.083 184.11 276.255 188.719 286.474C191.932 295.995 179.61 301.396 171.781 299.714C172.313 309.432 180.682 317 189.615 319.562C193.839 320.807 198.438 318.448 202.464 319.964C203.682 320.37 204.203 321.542 203.443 322.635C200.552 326.854 193.724 325.974 189.208 325.776H189.214ZM176.625 292.177C190.573 289.932 176.219 282.755 172.927 291.979C174.151 292.193 175.386 292.24 176.625 292.177Z" fill="white"/>
<path d="M331.073 312.708C326.776 310.344 328.838 305.005 329.64 301.266C330.229 298.677 330.203 296.01 330.484 293.401C330.818 292.083 332.458 291.412 333.62 292.125C335.729 293.672 335.515 296.797 335.823 299.156C335.833 303.484 337.505 312.745 331.073 312.708ZM357.338 303.125C357.364 299.464 359.354 293.099 353.786 292.854C349.328 293.203 349.995 296.662 349.62 299.906C348.359 303.531 346.646 309.583 351.385 311.354C355.521 311.479 357.51 306.662 357.349 303.12L357.338 303.125ZM176.64 196.703C178.786 194.766 178.557 191.734 179.437 189.208C179.963 185.927 183.552 184.484 182.927 182.151C179.041 174.677 167.922 192.932 172.588 196.714C173.594 198.328 175.531 198.063 176.64 196.714V196.703ZM197.271 192.896C197.109 190.974 198.583 188.521 196.87 187.037C193.338 185.104 191.677 190.682 190.12 192.906C188.38 195.604 188.234 200.167 191.349 201.906C196.068 202.719 197.594 196.542 197.271 192.896Z" fill="white"/>
</svg>
