<svg width="231" height="231" viewBox="0 0 231 231" fill="none" xmlns="http://www.w3.org/2000/svg">
<path d="M113.608 45.7186C102.179 45.7136 90.9233 48.5161 80.8306 53.8797C70.7379 59.2433 62.1172 67.0039 55.726 76.4794C49.3349 85.9548 45.3691 96.8551 44.1771 108.222C42.9851 119.589 44.6034 131.075 48.8898 141.67C49.279 142.555 49.4865 143.508 49.5003 144.475C49.514 145.441 49.3336 146.4 48.9697 147.295C48.6058 148.191 48.0659 149.004 47.382 149.686C46.698 150.369 45.884 150.907 44.9881 151.27C44.0922 151.632 43.1327 151.81 42.1665 151.795C41.2003 151.779 40.247 151.57 39.3632 151.179C38.4794 150.789 37.683 150.224 37.0213 149.52C36.3596 148.816 35.846 147.986 35.5111 147.079C28.2301 129.072 27.3972 109.102 33.1533 90.5514C38.9094 72.0006 50.9007 56.0097 67.096 45.2871C83.2914 34.5644 102.695 29.7694 122.021 31.7141C141.347 33.6588 159.406 42.2237 173.141 55.958C186.875 69.6924 195.44 87.7518 197.384 107.078C199.329 126.403 194.534 145.807 183.811 162.003C173.089 178.198 157.098 190.189 138.547 195.945C119.996 201.701 100.026 200.868 82.0191 193.587C80.2829 192.843 78.9079 191.447 78.189 189.7C77.4701 187.953 77.4647 185.994 78.1739 184.243C78.883 182.492 80.2503 181.089 81.9823 180.335C83.7143 179.581 85.673 179.535 87.438 180.209C96.9793 184.06 107.254 185.753 117.527 185.168C127.799 184.583 137.815 181.733 146.857 176.822C155.9 171.912 163.744 165.063 169.829 156.766C175.913 148.469 180.088 138.928 182.053 128.829C184.018 118.729 183.726 108.319 181.196 98.3457C178.667 88.3722 173.963 79.0814 167.422 71.1389C160.881 63.1964 152.665 56.7986 143.361 52.4039C134.058 48.0092 123.898 45.7262 113.608 45.7186Z" fill="#A78C00"/>
<path d="M60.1563 115.5C60.1563 128.176 64.4202 139.861 71.5908 149.197L67.0767 153.711L66.7976 154H55.5363C51.7086 154.003 48.0388 155.527 45.3338 158.235L29.5777 173.991C28.5694 175.001 27.8829 176.286 27.6049 177.686C27.3269 179.085 27.4698 180.536 28.0157 181.854C28.5615 183.172 29.4858 184.299 30.6718 185.093C31.8577 185.886 33.2521 186.31 34.679 186.311H44.689V196.321C44.6902 197.748 45.1143 199.142 45.9076 200.328C46.7008 201.514 47.8278 202.439 49.1461 202.984C50.4643 203.53 51.9148 203.673 53.3143 203.395C54.7137 203.117 55.9994 202.431 57.009 201.422L72.7651 185.657C75.4711 182.954 76.9942 179.288 77.0001 175.464V164.203L77.2888 163.923L81.803 159.419C91.7133 167.026 103.906 171.055 116.397 170.853C128.888 170.65 140.944 166.228 150.602 158.304C160.261 150.38 166.954 139.422 169.594 127.211C172.234 115 170.665 102.255 165.142 91.0492C159.619 79.8434 150.467 70.8359 139.174 65.4918C127.882 60.1477 115.114 58.7814 102.947 61.6152C90.7793 64.449 79.9286 71.316 72.1595 81.0995C64.3904 90.8829 60.16 103.007 60.1563 115.5ZM115.5 74.5938C121.919 74.5956 128.248 76.1082 133.975 79.0093C139.701 81.9103 144.665 86.1183 148.463 91.293C152.262 96.4677 154.79 102.464 155.842 108.796C156.894 115.129 156.441 121.62 154.519 127.745C152.597 133.87 149.261 139.457 144.78 144.054C140.299 148.651 134.8 152.128 128.726 154.205C122.652 156.283 116.174 156.901 109.817 156.011C103.459 155.121 97.4005 152.747 92.1306 149.082L107.973 133.229C112.086 134.974 116.678 135.234 120.962 133.965C125.245 132.695 128.954 129.976 131.452 126.271C133.95 122.567 135.082 118.11 134.653 113.662C134.225 109.215 132.263 105.056 129.104 101.897C125.944 98.7374 121.785 96.7754 117.338 96.347C112.891 95.9186 108.433 97.0504 104.729 99.5484C101.025 102.046 98.3047 105.755 97.0353 110.039C95.7658 114.322 96.0259 118.914 97.7708 123.027L81.9088 138.86C77.6409 132.725 75.1354 125.538 74.6643 118.079C74.1931 110.62 75.7744 103.175 79.2364 96.5512C82.6984 89.9277 87.9089 84.3793 94.3019 80.5083C100.695 76.6374 108.026 74.5918 115.5 74.5938ZM66.7976 163.625L67.3751 164.193V175.454C67.3723 176.729 66.8634 177.952 65.9602 178.852L54.314 190.498V181.499C54.314 180.222 53.8069 178.998 52.9044 178.096C52.0019 177.193 50.7778 176.686 49.5015 176.686H40.4925L52.1387 165.04C52.5857 164.592 53.1167 164.236 53.7014 163.993C54.286 163.75 54.9129 163.625 55.546 163.625H66.7976Z" fill="#A78C00"/>
</svg>
