<svg width="443" height="402" viewBox="0 0 443 402" fill="none" xmlns="http://www.w3.org/2000/svg">
<path d="M261.342 30.3098C271.266 15.7496 292.734 15.7496 302.658 30.3097L369.111 127.81C372.774 133.184 378.388 136.92 384.76 138.223L505.13 162.838C524.55 166.81 531.845 190.723 517.949 204.858L440.387 283.752C435.193 289.036 432.61 296.351 433.334 303.724L443.833 410.533C445.642 428.945 427.521 442.876 410.193 436.394L290.759 391.717C285.111 389.604 278.889 389.604 273.241 391.717L153.807 436.394C136.479 442.876 118.358 428.945 120.167 410.533L130.666 303.724C131.39 296.351 128.807 289.036 123.613 283.752L46.0512 204.858C32.1546 190.723 39.4496 166.81 58.87 162.838L179.24 138.223C185.612 136.92 191.226 133.184 194.889 127.81L261.342 30.3098Z" fill="#FFC587"/>
<path d="M269.958 123.906C275.956 116.68 287.044 116.68 293.042 123.906L338.999 179.275C341.296 182.043 344.51 183.892 348.057 184.488L425.762 197.537C438.399 199.659 442.729 215.627 432.893 223.842L386.541 262.559C382.645 265.813 380.66 270.815 381.263 275.854L387.794 330.422C389.083 341.193 378.866 349.729 368.496 346.543L285.905 321.173C283.034 320.291 279.966 320.291 277.095 321.173L194.504 346.543C184.134 349.729 173.917 341.193 175.206 330.422L181.737 275.854C182.34 270.815 180.355 265.813 176.459 262.559L130.107 223.842C120.271 215.627 124.601 199.659 137.238 197.537L214.943 184.488C218.49 183.892 221.704 182.043 224.001 179.275L269.958 123.906Z" fill="#FBEFDF"/>
</svg>
