<svg xmlns="http://www.w3.org/2000/svg" xmlns:xlink="http://www.w3.org/1999/xlink" width="816" zoomAndPan="magnify" viewBox="0 0 612 992.249974" height="1323" preserveAspectRatio="xMidYMid meet" version="1.0"><defs><filter x="0%" y="0%" width="100%" height="100%" id="5b023f47f5"><feColorMatrix values="0 0 0 0 1 0 0 0 0 1 0 0 0 0 1 0 0 0 1 0" color-interpolation-filters="sRGB"/></filter><mask id="3ef9d9479d"><g filter="url(#5b023f47f5)"><rect x="-61.2" width="734.4" fill="#000000" y="-99.224997" height="1190.699969" fill-opacity="0.2"/></g></mask><clipPath id="46d1cb06ce"><path d="M 1 0.339844 L 433.5625 0.339844 L 433.5625 248 L 1 248 Z M 1 0.339844 " clip-rule="nonzero"/></clipPath><clipPath id="a254f52e55"><rect x="0" width="434" y="0" height="249"/></clipPath><mask id="6a45ca6cac"><g filter="url(#5b023f47f5)"><rect x="-61.2" width="734.4" fill="#000000" y="-99.224997" height="1190.699969" fill-opacity="0.2"/></g></mask><clipPath id="56e7be4c99"><path d="M 0.0585938 0.257812 L 155 0.257812 L 155 420.417969 L 0.0585938 420.417969 Z M 0.0585938 0.257812 " clip-rule="nonzero"/></clipPath><clipPath id="ce30ffaf2f"><rect x="0" width="156" y="0" height="421"/></clipPath><mask id="0c87283e62"><g filter="url(#5b023f47f5)"><rect x="-61.2" width="734.4" fill="#000000" y="-99.224997" height="1190.699969" fill-opacity="0.2"/></g></mask><clipPath id="7f5977ec84"><path d="M 1 0.4375 L 61.382812 0.4375 L 61.382812 171.429688 L 1 171.429688 Z M 1 0.4375 " clip-rule="nonzero"/></clipPath><clipPath id="69c2ea8fe4"><rect x="0" width="62" y="0" height="172"/></clipPath><mask id="3ce9120269"><g filter="url(#5b023f47f5)"><rect x="-61.2" width="734.4" fill="#000000" y="-99.224997" height="1190.699969" fill-opacity="0.2"/></g></mask><clipPath id="84921ec9bb"><path d="M 0.0117188 0.339844 L 42.703125 0.339844 L 42.703125 169.171875 L 0.0117188 169.171875 Z M 0.0117188 0.339844 " clip-rule="nonzero"/></clipPath><clipPath id="2f88a2c822"><rect x="0" width="43" y="0" height="170"/></clipPath></defs><path fill="#f5fdd5" d="M 565.527344 851.683594 C 532.679688 929.21875 550.46875 957.941406 539.992188 974.367188 C 528.445312 991.378906 475.53125 959.765625 440.324219 927.371094 C 427.921875 915.984375 417.738281 904.492188 412.300781 895.007812 C 342.476562 798.875 449.488281 710.941406 416.855469 636.886719 C 410.238281 642.40625 394.027344 645.914062 378.730469 647.738281 C 370.019531 648.78125 361.609375 649.265625 355.445312 649.238281 C 354.535156 649.238281 353.652344 649.238281 352.847656 649.210938 C 353.035156 650.175781 353.140625 651.195312 353.167969 652.210938 L 353.167969 652.238281 C 353.355469 656.632812 352.175781 661.375 349.070312 665.660156 C 347.140625 668.367188 344.460938 670.886719 340.898438 673.03125 C 337.414062 675.121094 333.074219 676.859375 327.769531 678.066406 C 323.859375 678.976562 319.410156 679.566406 314.375 679.808594 C 299.933594 680.503906 287.394531 677.316406 277.320312 673.054688 C 260.332031 665.875 250.390625 655.585938 250.390625 655.585938 C 250.390625 655.585938 250.390625 655.613281 250.367188 655.613281 C 250.207031 655.855469 249.375 656.953125 247.953125 658.5625 C 246.050781 660.730469 243.050781 663.839844 239.058594 666.949219 C 230.539062 673.59375 217.597656 680.183594 201.601562 677.476562 C 200.476562 677.289062 199.378906 677.101562 198.308594 676.886719 C 193.433594 675.921875 188.929688 674.769531 184.910156 673.296875 C 181.667969 672.144531 178.722656 670.832031 176.121094 669.277344 C 171.835938 666.761719 168.460938 663.679688 166.15625 659.953125 C 161.761719 652.800781 161.304688 643.261719 166.023438 630.511719 C 116.054688 526.769531 30.183594 428.574219 74.152344 284.347656 C 75.328125 280.4375 76.617188 276.5 78.007812 272.507812 C 77.792969 272.347656 77.554688 272.183594 77.339844 271.996094 C 39.640625 244.695312 14.75 160.566406 41.195312 95.890625 C 44.035156 89.003906 25.414062 95.300781 29.433594 88.949219 C 41.277344 70.304688 80.554688 41.367188 104.398438 30.4375 C 165.085938 0 255.269531 1.527344 306.039062 40.832031 C 365.011719 91.066406 345.050781 166.355469 353.703125 226.261719 C 353.917969 227.710938 354.132812 229.128906 354.375 230.550781 C 355.605469 233.445312 357 236.445312 358.5 239.5 C 358.5 239.5 358.5 239.5 358.527344 239.523438 C 370.074219 262.863281 389.417969 290.082031 412.753906 309 C 435.742188 327.671875 455.542969 343.5625 473.816406 366.710938 C 499.886719 396.207031 515.667969 443.121094 516.417969 486.953125 C 516.738281 503.914062 514.808594 520.390625 510.332031 535.207031 C 519.820312 542.898438 528.445312 550.960938 536.269531 559.402344 C 536.269531 559.402344 536.269531 559.429688 536.296875 559.457031 C 605.394531 633.859375 610.832031 735.75 565.527344 851.683594 Z M 565.527344 851.683594 " fill-opacity="1" fill-rule="nonzero"/><path fill="#7ed957" d="M 445.496094 336.59375 C 393.519531 356.609375 338.59375 370.03125 332.941406 340.453125 C 325.761719 302.675781 350.890625 273.578125 368.949219 258.09375 C 378.941406 274.113281 393.652344 293.511719 412.753906 309 C 424.488281 318.511719 435.339844 327.296875 445.496094 336.59375 Z M 445.496094 336.59375 " fill-opacity="1" fill-rule="nonzero"/><path fill="#7ed957" d="M 514.941406 465.746094 C 494.578125 466.230469 466.070312 466.269531 436.277344 464.503906 C 378.648438 461.101562 391.992188 426.1875 426.207031 396.796875 C 445.28125 380.375 462.027344 371.425781 473.816406 366.710938 C 482.984375 376.605469 490.015625 388.523438 497.519531 402.429688 C 506.28125 418.640625 512.261719 442.0625 514.941406 465.746094 Z M 514.941406 465.746094 " fill-opacity="1" fill-rule="nonzero"/><path fill="#7ed957" d="M 529.878906 552.777344 C 492.609375 559.527344 420.097656 551.792969 444.34375 519.589844 C 467.277344 489.097656 502.429688 480.738281 516.121094 478.570312 C 517.433594 499.84375 515.480469 520.390625 510.332031 535.207031 C 517.585938 540.953125 524.144531 547.097656 529.878906 552.777344 Z M 529.878906 552.777344 " fill-opacity="1" fill-rule="nonzero"/><path fill="#7ed957" d="M 181.320312 477.496094 C 166.261719 491.1875 138.320312 495.421875 112.570312 487.089844 C 104.933594 484.625 86.09375 475.882812 86.09375 475.882812 C 79.210938 464.167969 65.042969 413.207031 63.78125 393.140625 C 70.320312 382.476562 81.25 369.28125 94.433594 370.460938 C 117.339844 372.496094 131.726562 393.367188 141.640625 403.980469 C 151.554688 414.5625 165.246094 422.089844 175.828125 424.503906 C 186.4375 426.886719 196.351562 463.832031 181.320312 477.496094 Z M 181.320312 477.496094 " fill-opacity="1" fill-rule="nonzero"/><path fill="#7ed957" d="M 494.402344 901.765625 C 485.375 918.832031 466.621094 930.488281 450.675781 937.722656 C 437.308594 925.984375 426.078125 915.992188 412.183594 896.667969 C 365.691406 832.019531 396.8125 760.933594 411.414062 723.984375 C 412.671875 720.796875 414.964844 714.398438 414.964844 714.398438 C 428.414062 707.082031 446.097656 700.714844 459.277344 706.097656 C 489.367188 718.421875 479.347656 765.847656 477.523438 789.101562 C 475.703125 812.359375 474.789062 823.316406 485.265625 835.183594 C 495.769531 847.027344 511.710938 868.917969 494.402344 901.765625 Z M 494.402344 901.765625 " fill-opacity="1" fill-rule="nonzero"/><path fill="#7ed957" d="M 168.359375 11.335938 C 157.453125 60.984375 130.871094 84.382812 116.320312 81.515625 C 103.890625 79.105469 103.347656 49.757812 104.394531 30.441406 C 108.089844 28.648438 111.925781 26.753906 116.023438 25.089844 C 133.894531 17.855469 151.425781 13.667969 168.359375 11.335938 Z M 168.359375 11.335938 " fill-opacity="1" fill-rule="nonzero"/><path fill="#7ed957" d="M 249.609375 14.957031 C 244.625 38.75 235.113281 66.210938 219.363281 93.433594 C 189.246094 145.410156 162.800781 130.378906 161.890625 81.347656 C 161.273438 48.902344 171.273438 23.816406 178.210938 10.257812 C 204.738281 7.636719 229.140625 9.972656 249.609375 14.957031 Z M 249.609375 14.957031 " fill-opacity="1" fill-rule="nonzero"/><path fill="#7ed957" d="M 309.765625 44.421875 C 303.441406 54.496094 294.171875 66.792969 280.964844 79.601562 C 248.597656 111.027344 242.195312 85.546875 245.382812 61.808594 C 247.257812 47.957031 254.613281 30.164062 260.375 17.949219 C 281.886719 24.378906 297.976562 33.4375 306.039062 40.832031 C 307.300781 41.984375 308.53125 43.1875 309.765625 44.421875 Z M 309.765625 44.421875 " fill-opacity="1" fill-rule="nonzero"/><path fill="#261b20" d="M 190.886719 644.738281 C 185.042969 649.078125 181.640625 655.132812 178.882812 661.535156 C 178.023438 663.570312 177.167969 665.847656 176.710938 667.726562 C 176.578125 668.289062 176.390625 668.796875 176.121094 669.277344 C 171.835938 666.761719 168.460938 663.679688 166.15625 659.953125 C 173.015625 652.933594 181.292969 646.585938 190.886719 644.738281 Z M 190.886719 644.738281 " fill-opacity="1" fill-rule="nonzero"/><path fill="#261b20" d="M 212.667969 653.363281 C 206.828125 657.679688 203.425781 663.757812 200.664062 670.136719 C 199.808594 672.199219 198.921875 674.476562 198.496094 676.324219 C 198.441406 676.511719 198.386719 676.699219 198.308594 676.886719 C 193.429688 675.921875 188.929688 674.769531 184.910156 673.296875 C 185.125 671.984375 185.769531 670.726562 186.839844 669.707031 C 193.886719 662.230469 202.566406 655.292969 212.667969 653.363281 Z M 212.667969 653.363281 " fill-opacity="1" fill-rule="nonzero"/><path fill="#261b20" d="M 349.070312 665.660156 C 347.890625 665.207031 346.738281 664.375 345.667969 663.035156 C 340.175781 655.960938 333.15625 649.265625 324.179688 646.664062 C 333.957031 644.949219 344.140625 647.953125 353.167969 652.210938 L 353.167969 652.238281 C 353.355469 656.632812 352.175781 661.375 349.070312 665.660156 Z M 349.070312 665.660156 " fill-opacity="1" fill-rule="nonzero"/><path fill="#261b20" d="M 340.898438 673.03125 C 337.414062 675.121094 333.074219 676.859375 327.769531 678.066406 C 322.382812 671.289062 315.578125 664.992188 306.953125 662.5 C 317.242188 660.679688 328.011719 664.160156 337.386719 668.769531 C 339.34375 670.003906 340.441406 671.476562 340.898438 673.03125 Z M 340.898438 673.03125 " fill-opacity="1" fill-rule="nonzero"/><path fill="#261b20" d="M 85.722656 42.234375 C 74.753906 53.085938 63.21875 62.355469 52.105469 71.492188 C 44.386719 78.488281 34.917969 84.933594 29.796875 93.199219 C 30.265625 92.378906 29.933594 90.085938 29.402344 89.121094 C 28.996094 88.300781 28.503906 87.835938 28.269531 87.652344 C 28.0625 87.480469 28.070312 87.523438 28.21875 87.621094 C 37.753906 91.3125 49.039062 90.597656 59.699219 91.050781 C 74.015625 90.617188 88.785156 91.148438 102.726562 87.332031 C 103.367188 87.097656 103.890625 88.042969 103.324219 88.453125 C 90.988281 97.035156 75.539062 99.402344 60.992188 101.648438 C 9.953125 107.589844 0.5625 90.832031 46.332031 62.566406 C 58.816406 54.570312 71.820312 47.503906 85.128906 41.03125 C 85.894531 40.730469 86.453125 41.726562 85.722656 42.234375 Z M 85.722656 42.234375 " fill-opacity="1" fill-rule="nonzero"/><path fill="#261b20" d="M 277.269531 114.367188 C 281.625 123.910156 284.683594 132.90625 288.902344 142.042969 C 291.59375 148.304688 296.777344 158.464844 301.265625 161.25 C 302.53125 161.988281 303.179688 162.195312 304.117188 162.269531 C 310.496094 162.628906 313.863281 160.585938 318.847656 154.789062 C 330.023438 139.992188 334.988281 121.796875 342.257812 103.546875 C 342.34375 103.136719 342.75 102.769531 343.183594 102.957031 C 343.445312 103.058594 343.605469 103.316406 343.597656 103.582031 C 343.160156 116.976562 341.394531 130.351562 337.425781 143.238281 C 335.410156 149.652344 332.839844 155.976562 329.054688 161.683594 C 322.234375 173.460938 304.640625 181.023438 293.046875 171.359375 C 287.585938 166.757812 284.558594 160.34375 282.257812 154.039062 C 277.820312 141.226562 276.214844 127.78125 275.929688 114.394531 C 276 113.527344 277.074219 113.546875 277.269531 114.367188 Z M 277.269531 114.367188 " fill-opacity="1" fill-rule="nonzero"/><path fill="#261b20" d="M 120.5 226.261719 C 120.5 215.496094 111.769531 206.765625 101.003906 206.765625 C 99.875 206.765625 98.773438 206.882812 97.699219 207.066406 C 103.710938 200.554688 106.859375 194.769531 107.117188 194.28125 C 108.15625 192.320312 107.40625 189.890625 105.449219 188.851562 C 103.496094 187.816406 101.054688 188.558594 100.015625 190.523438 C 99.902344 190.738281 88.308594 212.207031 66.195312 217.214844 C 64.027344 217.703125 62.671875 219.855469 63.164062 222.019531 C 63.585938 223.886719 65.242188 225.152344 67.078125 225.152344 C 67.371094 225.152344 67.671875 225.121094 67.96875 225.050781 C 73.558594 223.789062 78.507812 221.636719 82.890625 219.078125 C 82.007812 221.300781 81.507812 223.722656 81.507812 226.261719 C 81.507812 229.527344 82.320312 232.597656 83.738281 235.300781 C 83.136719 235.1875 82.519531 235.066406 81.898438 234.941406 C 75.566406 233.671875 68.394531 232.234375 63.820312 235.496094 C 61.890625 236.875 60.691406 238.921875 60.351562 241.421875 C 58.980469 251.589844 68.21875 254.109375 82.203125 257.921875 C 85.394531 258.792969 88.410156 259.175781 91.191406 259.175781 C 98.941406 259.175781 104.890625 256.195312 107.890625 252.4375 C 110.042969 249.738281 110.765625 246.546875 110.023438 243.539062 C 116.246094 240.28125 120.5 233.773438 120.5 226.261719 Z M 101.605469 247.425781 C 99.640625 249.882812 93.425781 252.652344 84.316406 250.167969 C 69.234375 246.054688 67.996094 244.859375 68.316406 242.496094 C 68.367188 242.125 68.445312 242.070312 68.488281 242.039062 C 68.996094 241.679688 69.9375 241.539062 71.097656 241.539062 C 73.910156 241.539062 78 242.355469 80.320312 242.820312 C 82.882812 243.335938 85.097656 243.777344 86.886719 243.824219 C 88.335938 243.863281 89.984375 243.644531 91.722656 243.417969 C 91.726562 243.417969 91.730469 243.417969 91.734375 243.417969 C 94.488281 244.910156 97.648438 245.757812 101.003906 245.757812 C 101.429688 245.757812 101.847656 245.722656 102.269531 245.695312 C 102.308594 246.113281 102.203125 246.671875 101.605469 247.425781 Z M 101.605469 247.425781 " fill-opacity="1" fill-rule="nonzero"/><path fill="#261b20" d="M 305.09375 231.257812 C 304.753906 228.757812 303.554688 226.710938 301.625 225.332031 C 297.050781 222.070312 289.878906 223.507812 283.546875 224.777344 C 281.535156 225.179688 279.449219 225.597656 278.355469 225.625 C 278.339844 225.625 278.3125 225.621094 278.296875 225.621094 C 278.46875 224.582031 278.578125 223.515625 278.578125 222.425781 C 278.578125 218.398438 277.355469 214.65625 275.261719 211.546875 C 279.871094 211.8125 284.738281 211.542969 289.761719 210.417969 C 290.058594 210.351562 290.34375 210.253906 290.605469 210.128906 C 292.265625 209.339844 293.222656 207.488281 292.804688 205.617188 C 292.316406 203.453125 290.171875 202.089844 288.003906 202.574219 C 265.878906 207.527344 246.207031 193.097656 246.007812 192.953125 C 244.226562 191.621094 241.703125 192 240.382812 193.769531 C 239.058594 195.546875 239.425781 198.066406 241.203125 199.390625 C 241.558594 199.65625 245.03125 202.191406 250.605469 204.890625 C 244.089844 208.046875 239.589844 214.703125 239.589844 222.425781 C 239.589844 232.574219 247.339844 240.902344 257.246094 241.828125 C 257.355469 241.976562 257.441406 242.128906 257.554688 242.273438 C 260.554688 246.03125 266.503906 249.011719 274.253906 249.011719 C 277.035156 249.011719 280.050781 248.628906 283.242188 247.757812 C 297.226562 243.945312 306.464844 241.425781 305.09375 231.257812 Z M 281.128906 240.003906 C 275.433594 241.558594 270.867188 241.058594 267.765625 239.863281 C 270.75 238.375 273.304688 236.160156 275.175781 233.429688 C 276.371094 233.570312 277.527344 233.6875 278.558594 233.660156 C 280.347656 233.613281 282.5625 233.171875 285.125 232.65625 C 287.445312 232.195312 291.535156 231.375 294.347656 231.375 C 295.507812 231.375 296.449219 231.515625 296.957031 231.875 C 297 231.90625 297.078125 231.960938 297.128906 232.332031 C 297.445312 234.695312 296.210938 235.890625 281.128906 240.003906 Z M 281.128906 240.003906 " fill-opacity="1" fill-rule="nonzero"/><path fill="#261b20" d="M 203.363281 260.296875 C 200.320312 260.398438 192.316406 256.601562 187.839844 253.78125 C 187.730469 253.714844 187.617188 253.671875 187.507812 253.617188 C 189.65625 250.394531 191.660156 245.589844 191.34375 241.277344 C 190.886719 235.121094 174.453125 234.128906 169.582031 240.554688 C 165.6875 245.699219 172.3125 252.429688 175.878906 255.441406 C 174.304688 258.347656 168.003906 263.65625 163.816406 266.425781 C 161.964844 267.652344 161.457031 270.144531 162.679688 271.996094 C 163.453125 273.164062 164.734375 273.796875 166.035156 273.796875 C 166.796875 273.796875 167.570312 273.582031 168.25 273.128906 C 168.367188 273.054688 178.765625 266.113281 182.65625 259.777344 C 182.914062 260.082031 183.203125 260.363281 183.558594 260.585938 C 183.683594 260.664062 195.960938 268.335938 203.277344 268.335938 C 203.441406 268.335938 203.601562 268.332031 203.757812 268.324219 C 205.976562 268.21875 207.683594 266.332031 207.574219 264.117188 C 207.464844 261.898438 205.578125 260.152344 203.363281 260.296875 Z M 203.363281 260.296875 " fill-opacity="1" fill-rule="nonzero"/><path fill="#261b20" d="M 345.410156 194.15625 C 344.40625 194.15625 343.449219 193.59375 342.988281 192.628906 C 342.351562 191.292969 342.917969 189.695312 344.253906 189.058594 L 381.222656 171.4375 C 382.574219 170.800781 384.164062 171.371094 384.796875 172.703125 C 385.433594 174.039062 384.867188 175.640625 383.53125 176.277344 L 346.5625 193.894531 C 346.1875 194.074219 345.792969 194.15625 345.410156 194.15625 Z M 345.410156 194.15625 " fill-opacity="1" fill-rule="nonzero"/><path fill="#261b20" d="M 376.222656 208.359375 C 376.167969 208.359375 376.113281 208.359375 376.054688 208.355469 L 346.332031 206.488281 C 344.851562 206.394531 343.734375 205.125 343.824219 203.648438 C 343.914062 202.167969 345.226562 201.03125 346.664062 201.140625 L 376.390625 203.003906 C 377.867188 203.097656 378.988281 204.371094 378.894531 205.847656 C 378.804688 207.265625 377.625 208.359375 376.222656 208.359375 Z M 376.222656 208.359375 " fill-opacity="1" fill-rule="nonzero"/><path fill="#261b20" d="M 387.832031 237.269531 C 387.464844 237.269531 387.09375 237.195312 386.738281 237.035156 L 342.957031 217.425781 C 341.605469 216.820312 341 215.234375 341.605469 213.886719 C 342.210938 212.535156 343.796875 211.925781 345.148438 212.535156 L 388.929688 232.144531 C 390.277344 232.75 390.882812 234.335938 390.277344 235.683594 C 389.832031 236.679688 388.855469 237.269531 387.832031 237.269531 Z M 387.832031 237.269531 " fill-opacity="1" fill-rule="nonzero"/><path fill="#261b20" d="M 45.355469 223.902344 C 45.226562 223.902344 45.09375 223.894531 44.960938 223.875 C 29.214844 221.546875 10.511719 220.113281 7.730469 221.851562 C 6.503906 222.625 4.824219 222.304688 4.023438 221.089844 C 3.21875 219.871094 3.492188 218.269531 4.691406 217.441406 C 10.144531 213.667969 37.492188 217.351562 45.746094 218.570312 C 47.207031 218.789062 48.222656 220.148438 48.003906 221.613281 C 47.808594 222.945312 46.664062 223.902344 45.355469 223.902344 Z M 45.355469 223.902344 " fill-opacity="1" fill-rule="nonzero"/><path fill="#261b20" d="M 21.507812 240.5625 C 20.367188 240.5625 19.308594 239.828125 18.949219 238.683594 C 18.507812 237.269531 19.292969 235.769531 20.707031 235.324219 C 46.335938 227.289062 47 227.359375 47.671875 227.414062 C 49.144531 227.546875 50.230469 228.851562 50.097656 230.324219 C 49.976562 231.628906 48.941406 232.628906 47.683594 232.75 C 45.800781 233.144531 31.203125 237.652344 22.308594 240.4375 C 22.039062 240.523438 21.769531 240.5625 21.507812 240.5625 Z M 21.507812 240.5625 " fill-opacity="1" fill-rule="nonzero"/><path fill="#261b20" d="M 14.746094 266.214844 C 14.105469 266.214844 13.460938 265.984375 12.949219 265.519531 C 11.851562 264.527344 11.765625 262.835938 12.757812 261.738281 C 23.027344 250.375 49.285156 238.308594 50.402344 237.800781 C 51.75 237.183594 53.335938 237.78125 53.949219 239.125 C 54.5625 240.472656 53.972656 242.0625 52.625 242.675781 C 52.363281 242.796875 26.261719 254.789062 16.734375 265.328125 C 16.207031 265.914062 15.476562 266.214844 14.746094 266.214844 Z M 14.746094 266.214844 " fill-opacity="1" fill-rule="nonzero"/><g mask="url(#3ef9d9479d)"><g transform="matrix(1, 0, 0, 1, 83, 239)"><g clip-path="url(#a254f52e55)"><g clip-path="url(#46d1cb06ce)"><path fill="#7ed957" d="M 433.414062 247.953125 C 431.726562 242.625 386.957031 106.890625 214.171875 93.496094 C 37.929688 79.804688 11.082031 51.59375 1.332031 40.632812 C -1.292969 37.660156 88.917969 59.628906 129.667969 58.261719 C 169.132812 56.949219 275.5 0.5 275.5 0.5 C 275.5 0.5 275.5 0.5 275.527344 0.523438 C 287.074219 23.863281 306.417969 51.082031 329.753906 70 C 352.742188 88.671875 372.542969 104.5625 390.816406 127.710938 C 416.886719 157.207031 432.667969 204.121094 433.414062 247.953125 Z M 433.414062 247.953125 " fill-opacity="1" fill-rule="nonzero"/></g></g></g></g><g mask="url(#6a45ca6cac)"><g transform="matrix(1, 0, 0, 1, 440, 559)"><g clip-path="url(#ce30ffaf2f)"><g clip-path="url(#56e7be4c99)"><path fill="#7ed957" d="M 125.527344 292.683594 C 92.679688 370.21875 110.46875 398.941406 99.992188 415.367188 C 88.445312 432.378906 35.53125 400.765625 0.324219 368.371094 C 59.027344 307.152344 129.894531 156.46875 136.484375 123.941406 C 143.664062 88.46875 97.636719 2.921875 96.296875 0.457031 C 165.394531 74.859375 170.832031 176.75 125.527344 292.683594 Z M 125.527344 292.683594 " fill-opacity="1" fill-rule="nonzero"/></g></g></g></g><g mask="url(#0c87283e62)"><g transform="matrix(1, 0, 0, 1, 318, 478)"><g clip-path="url(#69c2ea8fe4)"><g clip-path="url(#7f5977ec84)"><path fill="#7ed957" d="M 60.730469 169.738281 C 51.988281 170.859375 41 171.363281 34.847656 171.210938 C 33.863281 169.488281 33.695312 168.476562 32.273438 166.738281 C 24.746094 157.519531 1.140625 138.363281 1.140625 138.363281 L 15.179688 81.402344 L 25.441406 34.378906 L 28.335938 0.570312 C 28.335938 0.570312 38.089844 2.925781 38.4375 35.773438 C 38.785156 68.59375 30.480469 108.625 36.320312 119.554688 C 42.1875 130.511719 63.890625 160.414062 60.730469 169.738281 Z M 60.730469 169.738281 " fill-opacity="1" fill-rule="nonzero"/></g></g></g></g><g mask="url(#3ce9120269)"><g transform="matrix(1, 0, 0, 1, 235, 504)"><g clip-path="url(#2f88a2c822)"><g clip-path="url(#84921ec9bb)"><path fill="#7ed957" d="M 42.320312 169.054688 C 25.332031 161.875 15.390625 151.585938 15.390625 151.585938 C 15.390625 151.585938 15.390625 151.613281 15.367188 151.613281 C 15.203125 151.855469 14.375 152.953125 12.953125 154.5625 L 10.945312 153.007812 L 0.253906 0.609375 C 0.253906 0.609375 17.105469 14.300781 24.984375 51.035156 C 31.308594 80.5625 39.398438 144.996094 42.320312 169.054688 Z M 42.320312 169.054688 " fill-opacity="1" fill-rule="nonzero"/></g></g></g></g><path fill="#261b20" d="M 250.367188 655.613281 C 249.964844 656.175781 245.972656 661.5625 239.058594 666.949219 C 237.53125 629.25 236.164062 589.625 235.175781 555.945312 C 234.691406 542.066406 233.941406 513.988281 233.644531 500.109375 C 233.644531 499.734375 233.941406 499.441406 234.289062 499.441406 C 234.691406 499.441406 234.933594 499.707031 234.984375 500.058594 C 247.203125 544.585938 252.507812 602.429688 250.367188 655.613281 Z M 250.367188 655.613281 " fill-opacity="1" fill-rule="nonzero"/><path fill="#261b20" d="M 345.464844 475.695312 C 356.742188 507.769531 333.96875 596.421875 322.910156 613.75 C 322.910156 613.75 338.707031 624.429688 346.859375 637.046875 C 349.460938 640.972656 352.847656 649.210938 352.847656 649.210938 C 352.847656 649.210938 346.066406 636.289062 324.179688 623.175781 C 319.867188 620.59375 313.011719 620.515625 308.066406 619.492188 C 310.554688 616.914062 312.289062 613.769531 313.796875 610.296875 C 317.492188 601.875 320.253906 593.054688 322.917969 584.242188 C 330.007812 560.652344 335.855469 536.625 340.324219 512.398438 C 342.226562 500.394531 345.039062 488.027344 344.140625 475.902344 C 344.101562 475.535156 344.363281 475.210938 344.726562 475.171875 C 345.082031 475.148438 345.359375 475.367188 345.464844 475.695312 Z M 345.464844 475.695312 " fill-opacity="1" fill-rule="nonzero"/><path fill="#261b20" d="M 358.5 239.5 C 337.386719 253.164062 315.445312 265.566406 292.75 276.578125 C 267.296875 286.949219 240.425781 293.296875 213.417969 297.824219 C 213.070312 297.878906 212.722656 297.636719 212.667969 297.261719 C 212.613281 296.941406 212.828125 296.621094 213.125 296.539062 C 242.433594 287 271.503906 276.953125 298.136719 261.546875 C 316.785156 250.109375 335.03125 237.835938 353.703125 226.261719 C 353.917969 227.710938 354.132812 229.128906 354.375 230.550781 C 355.605469 233.445312 357 236.445312 358.5 239.5 Z M 358.5 239.5 " fill-opacity="1" fill-rule="nonzero"/><path fill="#261b20" d="M 105.070312 286.8125 C 99.578125 286.519531 88.566406 285.636719 83.097656 285.019531 C 80.125 284.699219 77.152344 284.5625 74.152344 284.347656 C 75.328125 280.4375 76.617188 276.5 78.007812 272.507812 C 77.792969 272.347656 77.554688 272.1875 77.339844 272 C 79.910156 272.75 82.484375 273.578125 85.054688 274.488281 C 98.746094 278 113.507812 282.632812 127.28125 285.476562 C 131.96875 288.449219 106.488281 286.761719 105.070312 286.8125 Z M 105.070312 286.8125 " fill-opacity="1" fill-rule="nonzero"/></svg>