<svg xmlns="http://www.w3.org/2000/svg" xmlns:xlink="http://www.w3.org/1999/xlink" width="158" zoomAndPan="magnify" viewBox="0 0 118.5 361.499992" height="482" preserveAspectRatio="xMidYMid meet" version="1.0"><defs><filter x="0%" y="0%" width="100%" height="100%" id="662a90d2e2"><feColorMatrix values="0 0 0 0 1 0 0 0 0 1 0 0 0 0 1 0 0 0 1 0" color-interpolation-filters="sRGB"/></filter><clipPath id="5410b22e3e"><path d="M 0.121094 51 L 103 51 L 103 111 L 0.121094 111 Z M 0.121094 51 " clip-rule="nonzero"/></clipPath><clipPath id="057ad2ce0c"><path d="M 31 0.511719 L 77 0.511719 L 77 43 L 31 43 Z M 31 0.511719 " clip-rule="nonzero"/></clipPath><clipPath id="70a6d84c4b"><path d="M 0.121094 111 L 110 111 L 110 194.761719 L 0.121094 194.761719 Z M 0.121094 111 " clip-rule="nonzero"/></clipPath><clipPath id="5ced284f85"><path d="M 4.035156 254 L 117.671875 254 L 117.671875 305 L 4.035156 305 Z M 4.035156 254 " clip-rule="nonzero"/></clipPath><mask id="a1c51bd767"><g filter="url(#662a90d2e2)"><rect x="-11.85" width="142.2" fill="#000000" y="-36.149999" height="433.79999" fill-opacity="0.83"/></g></mask><clipPath id="2dbd2d88a5"><path d="M 0.300781 0.558594 L 113.582031 0.558594 L 113.582031 50.746094 L 0.300781 50.746094 Z M 0.300781 0.558594 " clip-rule="nonzero"/></clipPath><clipPath id="2b824edc92"><rect x="0" width="114" y="0" height="51"/></clipPath><clipPath id="49e8c9db5b"><path d="M 61 348 L 92 348 L 92 360.078125 L 61 360.078125 Z M 61 348 " clip-rule="nonzero"/></clipPath><clipPath id="a8e415fb51"><path d="M 61 348 L 92 348 L 92 360.078125 L 61 360.078125 Z M 61 348 " clip-rule="nonzero"/></clipPath><clipPath id="306894cde0"><path d="M 50 340 L 100 340 L 100 360.078125 L 50 360.078125 Z M 50 340 " clip-rule="nonzero"/></clipPath><clipPath id="7db57a6a9b"><path d="M 50 339 L 100 339 L 100 360.078125 L 50 360.078125 Z M 50 339 " clip-rule="nonzero"/></clipPath></defs><g clip-path="url(#5410b22e3e)"><path fill="#c3f498" d="M 1.34375 52.558594 C 27.253906 51.964844 53.164062 51.753906 79.082031 51.925781 C 86.429688 51.976562 93.78125 52.054688 101.132812 52.167969 C 101.433594 52.164062 101.6875 52.273438 101.894531 52.496094 C 102.097656 52.527344 102.253906 52.636719 102.355469 52.820312 C 102.363281 52.835938 102.371094 52.851562 102.378906 52.867188 C 102.710938 53.019531 102.960938 53.339844 102.941406 53.839844 C 102.105469 75.660156 90.597656 97.082031 70.535156 106.011719 C 60.941406 110.285156 50.003906 111.503906 39.878906 108.609375 C 29.871094 105.75 21.070312 99.230469 14.625 90.964844 C 6.609375 80.679688 2.3125 67.957031 0.597656 55.019531 C 0.574219 54.859375 0.582031 54.703125 0.628906 54.546875 C 0.0117188 53.953125 0.238281 52.585938 1.34375 52.558594 Z M 1.34375 52.558594 " fill-opacity="1" fill-rule="nonzero"/></g><g clip-path="url(#057ad2ce0c)"><path fill="#fcaa06" d="M 31.84375 21.605469 C 32.105469 16.148438 34.015625 10.492188 38.433594 6.6875 C 42.835938 2.898438 48.246094 0.511719 54.339844 0.511719 C 60.105469 0.511719 66.164062 2.863281 70.246094 6.6875 C 74.148438 10.347656 77.085938 16.351562 76.832031 21.605469 C 76.574219 27.0625 74.660156 32.71875 70.246094 36.519531 C 65.84375 40.308594 60.433594 42.699219 54.339844 42.699219 C 48.570312 42.699219 42.511719 40.347656 38.433594 36.519531 C 34.53125 32.863281 31.59375 26.859375 31.84375 21.605469 Z M 31.84375 21.605469 " fill-opacity="1" fill-rule="nonzero"/></g><path fill="#8ae5d0" d="M 36.707031 159.796875 C 36.464844 160.558594 36.230469 160.765625 36.226562 160.628906 C 36.40625 160.375 36.5625 160.101562 36.691406 159.816406 Z M 36.707031 159.796875 " fill-opacity="1" fill-rule="nonzero"/><g clip-path="url(#70a6d84c4b)"><path fill="#8ae5d0" d="M 3.191406 157.707031 C 5.003906 142.597656 13.179688 128.386719 25.492188 119.972656 C 41.527344 109.019531 61.679688 109.257812 77.9375 118.4375 C 91.808594 126.269531 102.550781 139.945312 107.398438 155.867188 C 110.4375 165.847656 111.8125 177.523438 105.449219 186.652344 C 102.460938 190.945312 97.3125 193.984375 92.335938 194.332031 C 86.21875 194.761719 80.902344 191.320312 77.695312 186.023438 C 73.183594 178.582031 72.222656 169.277344 69.292969 161.097656 C 69.277344 161.070312 69.261719 161.046875 69.246094 161.019531 C 69.035156 160.648438 68.847656 160.257812 68.636719 159.886719 C 68.210938 159.140625 67.753906 158.417969 67.265625 157.71875 C 67.179688 157.597656 67.019531 157.324219 66.851562 157.082031 C 66.734375 156.992188 66.628906 156.894531 66.53125 156.785156 C 65.824219 156.003906 65.074219 155.265625 64.28125 154.570312 C 63.964844 154.292969 63.644531 154.023438 63.316406 153.757812 C 63.234375 153.695312 63.152344 153.628906 63.070312 153.5625 C 62.289062 152.972656 62.40625 153.054688 63.417969 153.8125 C 63.183594 153.3125 61.761719 152.773438 61.285156 152.511719 C 60.550781 152.109375 59.789062 151.792969 59.042969 151.421875 C 59.003906 151.402344 58.972656 151.382812 58.9375 151.367188 C 58.542969 151.246094 58.148438 151.121094 57.75 151.015625 C 56.828125 150.777344 55.894531 150.59375 54.953125 150.460938 C 54.738281 150.433594 54.492188 150.378906 54.246094 150.339844 C 54.140625 150.34375 54.007812 150.355469 53.820312 150.363281 C 52.964844 150.40625 52.117188 150.402344 51.261719 150.488281 C 50.835938 150.527344 50.414062 150.582031 49.988281 150.640625 C 49.875 150.660156 49.761719 150.683594 49.648438 150.699219 C 49.21875 151.023438 47.273438 151.351562 46.933594 151.476562 C 46.53125 151.621094 45.773438 151.816406 45.144531 152.070312 C 45.117188 152.097656 44.957031 152.199219 44.550781 152.449219 C 44.175781 152.675781 43.800781 152.894531 43.429688 153.132812 C 42.546875 153.699219 41.722656 154.339844 40.890625 154.984375 C 40.667969 155.214844 40.328125 155.476562 40.152344 155.65625 C 39.480469 156.339844 38.839844 157.058594 38.226562 157.800781 C 37.695312 158.449219 37.199219 159.121094 36.707031 159.796875 C 36.71875 159.765625 36.730469 159.734375 36.738281 159.695312 C 36.726562 159.734375 36.710938 159.777344 36.691406 159.816406 C 36.625 159.914062 36.550781 160.007812 36.484375 160.101562 C 36.292969 160.363281 36.222656 160.550781 36.226562 160.628906 C 36.042969 160.902344 35.855469 161.164062 35.738281 161.367188 C 34.820312 162.992188 33.988281 164.664062 33.246094 166.375 C 32.84375 167.292969 32.464844 168.222656 32.105469 169.15625 C 31.945312 169.578125 31.789062 169.996094 31.632812 170.417969 C 31.53125 170.679688 31.40625 170.929688 31.265625 171.171875 C 30.652344 172.558594 30.375 174.40625 29.992188 175.785156 C 29.414062 177.851562 28.886719 179.929688 28.375 182.011719 C 28.011719 183.492188 27.714844 185.375 27.007812 186.675781 C 25.714844 189.050781 23.777344 190.628906 21.410156 191.628906 C 18.769531 192.75 15.589844 192.902344 12.902344 192.082031 C 7.433594 190.40625 3.070312 186.128906 1.535156 180.207031 C 0.246094 175.230469 0.644531 170.046875 1.507812 164.972656 C 1.929688 162.519531 2.492188 160.097656 3.191406 157.707031 Z M 3.191406 157.707031 " fill-opacity="1" fill-rule="nonzero"/></g><path fill="#fae61b" d="M 16.53125 223.96875 C 13.996094 224.292969 13.773438 227.660156 15.421875 228.773438 C 15.160156 237.160156 19.996094 244.605469 26.355469 249.621094 C 30.074219 252.550781 34.222656 254.898438 38.378906 257.074219 C 42.355469 259.152344 46.515625 260.921875 50.902344 261.777344 C 67.636719 265.046875 84.8125 256.78125 94.40625 242.554688 C 99.75 234.621094 102.96875 225.308594 103.898438 215.664062 C 103.957031 215.132812 103.871094 214.625 103.632812 214.148438 C 103.375 213.046875 102.507812 212.15625 101.105469 212.363281 C 72.957031 216.527344 44.761719 220.398438 16.53125 223.96875 Z M 16.53125 223.96875 " fill-opacity="1" fill-rule="nonzero"/><g clip-path="url(#5ced284f85)"><g mask="url(#a1c51bd767)"><g transform="matrix(1, 0, 0, 1, 4, 254)"><g clip-path="url(#2b824edc92)"><g clip-path="url(#2dbd2d88a5)"><path fill="#8c52ff" d="M 17.238281 17.234375 C 9.101562 25 3.3125 34.824219 0.585938 45.441406 C 0.0390625 47.558594 1.789062 49.03125 3.550781 49.199219 C 3.988281 50.019531 4.84375 50.609375 6.144531 50.574219 C 39.492188 49.695312 72.851562 49.5625 106.21875 50.179688 C 107.386719 50.199219 108.226562 49.71875 108.734375 49.019531 C 110.640625 49.707031 113.585938 48.222656 113.28125 45.582031 C 111.078125 26.46875 96.328125 9.746094 77.121094 3.585938 C 56.269531 -3.105469 32.585938 2.585938 17.238281 17.234375 Z M 14.269531 30.605469 C 14.109375 30.707031 13.953125 30.808594 13.792969 30.914062 C 13.941406 30.6875 14.085938 30.464844 14.238281 30.242188 C 14.242188 30.367188 14.253906 30.484375 14.269531 30.605469 Z M 14.269531 30.605469 " fill-opacity="1" fill-rule="nonzero"/></g></g></g></g></g><path fill="#ff9358" d="M 66.722656 180.179688 C 67.191406 180.652344 67.636719 181.140625 68.058594 181.65625 C 68.480469 182.167969 68.875 182.699219 69.242188 183.25 C 69.609375 183.804688 69.953125 184.371094 70.265625 184.957031 C 70.578125 185.542969 70.859375 186.140625 71.113281 186.753906 C 71.367188 187.367188 71.589844 187.992188 71.785156 188.625 C 71.976562 189.261719 72.136719 189.902344 72.265625 190.554688 C 72.398438 191.207031 72.492188 191.859375 72.558594 192.519531 C 72.625 193.183594 72.65625 193.84375 72.65625 194.507812 C 72.65625 195.171875 72.625 195.832031 72.558594 196.492188 C 72.492188 197.152344 72.398438 197.808594 72.265625 198.460938 C 72.136719 199.109375 71.976562 199.753906 71.785156 200.386719 C 71.589844 201.023438 71.367188 201.648438 71.113281 202.261719 C 70.859375 202.875 70.578125 203.472656 70.265625 204.058594 C 69.953125 204.644531 69.609375 205.210938 69.242188 205.761719 C 68.875 206.316406 68.480469 206.847656 68.058594 207.359375 C 67.636719 207.871094 67.191406 208.363281 66.722656 208.832031 C 66.253906 209.300781 65.761719 209.746094 65.25 210.167969 C 64.738281 210.589844 64.203125 210.984375 63.652344 211.351562 C 63.101562 211.722656 62.53125 212.0625 61.945312 212.375 C 61.363281 212.6875 60.761719 212.96875 60.148438 213.222656 C 59.535156 213.476562 58.914062 213.703125 58.277344 213.894531 C 57.644531 214.085938 57 214.246094 56.347656 214.378906 C 55.699219 214.507812 55.042969 214.605469 54.382812 214.667969 C 53.722656 214.734375 53.058594 214.765625 52.398438 214.765625 C 51.734375 214.765625 51.070312 214.734375 50.410156 214.667969 C 49.75 214.605469 49.09375 214.507812 48.445312 214.378906 C 47.792969 214.246094 47.152344 214.085938 46.515625 213.894531 C 45.878906 213.703125 45.257812 213.476562 44.644531 213.222656 C 44.03125 212.96875 43.433594 212.6875 42.847656 212.375 C 42.261719 212.0625 41.691406 211.722656 41.140625 211.351562 C 40.589844 210.984375 40.058594 210.589844 39.542969 210.167969 C 39.03125 209.746094 38.539062 209.300781 38.070312 208.832031 C 37.601562 208.363281 37.15625 207.871094 36.734375 207.359375 C 36.316406 206.847656 35.921875 206.316406 35.550781 205.761719 C 35.183594 205.210938 34.84375 204.644531 34.53125 204.058594 C 34.214844 203.472656 33.933594 202.875 33.679688 202.261719 C 33.425781 201.648438 33.203125 201.023438 33.007812 200.386719 C 32.816406 199.753906 32.65625 199.109375 32.527344 198.460938 C 32.398438 197.808594 32.300781 197.152344 32.234375 196.492188 C 32.167969 195.832031 32.136719 195.171875 32.136719 194.507812 C 32.136719 193.84375 32.167969 193.179688 32.234375 192.519531 C 32.300781 191.859375 32.398438 191.207031 32.527344 190.554688 C 32.65625 189.902344 32.816406 189.261719 33.007812 188.625 C 33.203125 187.992188 33.425781 187.367188 33.679688 186.753906 C 33.933594 186.140625 34.214844 185.542969 34.53125 184.957031 C 34.84375 184.371094 35.183594 183.804688 35.550781 183.25 C 35.921875 182.699219 36.316406 182.167969 36.734375 181.65625 C 37.15625 181.140625 37.601562 180.652344 38.070312 180.179688 C 38.539062 179.710938 39.03125 179.265625 39.542969 178.847656 C 40.058594 178.425781 40.589844 178.03125 41.140625 177.660156 C 41.691406 177.292969 42.261719 176.953125 42.847656 176.640625 C 43.433594 176.328125 44.03125 176.042969 44.644531 175.789062 C 45.257812 175.535156 45.878906 175.3125 46.515625 175.121094 C 47.152344 174.925781 47.792969 174.765625 48.445312 174.636719 C 49.09375 174.507812 49.75 174.410156 50.410156 174.34375 C 51.070312 174.28125 51.734375 174.246094 52.398438 174.246094 C 53.058594 174.246094 53.722656 174.28125 54.382812 174.34375 C 55.042969 174.410156 55.699219 174.507812 56.347656 174.636719 C 57 174.765625 57.644531 174.925781 58.277344 175.121094 C 58.914062 175.3125 59.535156 175.535156 60.148438 175.789062 C 60.761719 176.042969 61.363281 176.328125 61.945312 176.640625 C 62.53125 176.953125 63.101562 177.292969 63.652344 177.660156 C 64.203125 178.03125 64.738281 178.425781 65.25 178.847656 C 65.761719 179.265625 66.253906 179.710938 66.722656 180.179688 Z M 66.722656 180.179688 " fill-opacity="1" fill-rule="nonzero"/><path stroke-linecap="butt" transform="matrix(0.101725, 0, 0, 0.101725, 4.483596, 174.247465)" fill-opacity="1" fill="#38b6ff" fill-rule="nonzero" stroke-linejoin="miter" d="M 501.397519 1501.276085 L 174.574429 1631.221959 C 178.299237 1636.828371 182.177645 1642.319583 186.171254 1647.733994 C 238.548964 1632.028361 290.312274 1614.249124 341.537982 1595.049083 C 403.746113 1571.740234 465.147843 1546.31938 526.088771 1519.938525 C 587.1449 1493.519269 647.778628 1466.140011 708.450756 1438.875953 C 769.545285 1411.419896 830.755014 1384.079038 892.463944 1357.966983 C 931.516827 1341.416548 970.80011 1325.403714 1010.390593 1310.158882 C 1009.814592 1306.626074 1009.200191 1303.131667 1008.547389 1299.59886 L 871.036699 1354.280575 Z M 501.397519 1501.276085 " stroke="#c49a6d" stroke-width="1" stroke-opacity="1" stroke-miterlimit="10"/><path stroke-linecap="butt" transform="matrix(0.101725, 0, 0, 0.101725, 4.483596, 174.247465)" fill-opacity="1" fill="#38b6ff" fill-rule="nonzero" stroke-linejoin="miter" d="M 185.979253 1648.309995 L 185.748853 1648.002795 C 181.755245 1642.626783 177.838436 1637.058772 174.152028 1631.49076 L 173.806428 1630.991559 L 174.382429 1630.761158 L 1008.93139 1298.907658 L 1009.04659 1299.522059 C 1009.699392 1302.978067 1010.313793 1306.510874 1010.889794 1310.082082 L 1010.928194 1310.466082 L 1010.544194 1310.619683 C 973.372915 1324.942913 934.780834 1340.571746 892.655945 1358.427784 C 830.524614 1384.731839 767.702081 1412.802298 708.642756 1439.336754 L 686.293909 1449.359176 C 633.954599 1472.898425 579.848885 1497.205677 526.280772 1520.399326 C 456.315824 1550.658589 397.6789 1574.54344 341.691582 1595.509884 C 286.971467 1616.053927 236.129759 1633.257164 186.286454 1648.194795 Z M 175.304031 1631.45236 C 178.836838 1636.751571 182.561646 1642.012382 186.363254 1647.157993 C 236.052959 1632.258762 286.779466 1615.055525 341.345981 1594.588282 C 397.294899 1573.621838 455.931823 1549.736987 525.896771 1519.477724 C 579.426484 1496.322475 633.570598 1471.976823 685.871508 1448.475974 L 708.220356 1438.415152 C 767.27968 1411.880696 830.140613 1383.810237 892.271944 1357.506182 C 934.281633 1339.726944 972.720114 1324.136511 1009.814592 1309.813281 C 1009.315391 1306.626074 1008.73939 1303.438868 1008.163389 1300.290061 L 501.589519 1501.736886 L 501.397519 1501.276085 L 501.589519 1501.736886 Z M 175.304031 1631.45236 " stroke="#c49a6d" stroke-width="1" stroke-opacity="1" stroke-miterlimit="10"/><path stroke-linecap="butt" transform="matrix(0.101725, 0, 0, 0.101725, 4.483596, 174.247465)" fill-opacity="1" fill="#38b6ff" fill-rule="nonzero" stroke-linejoin="miter" d="M 694.511527 1469.672818 C 633.148197 1497.244077 571.746468 1524.815335 509.845537 1551.272991 C 448.827808 1577.385046 387.272478 1602.421899 324.872347 1625.193147 C 283.97626 1640.130778 242.734573 1654.070008 201.070485 1666.742034 C 204.910493 1671.311644 208.788902 1675.804453 212.82091 1680.220463 C 261.435413 1664.092429 309.896315 1647.388393 358.126817 1630.108357 C 480.123874 1586.370665 600.661729 1538.984965 719.81718 1487.912857 C 819.38859 1445.250367 917.769598 1400.015071 1014.998603 1352.245371 C 1014.614602 1345.870957 1014.077001 1339.458144 1013.4242 1333.04533 C 967.305702 1350.862968 921.609606 1369.755808 876.18231 1389.224649 C 815.318182 1415.336704 754.914854 1442.523961 694.511527 1469.672818 Z M 694.511527 1469.672818 " stroke="#c49a6d" stroke-width="1" stroke-opacity="1" stroke-miterlimit="10"/><path stroke-linecap="butt" transform="matrix(0.101725, 0, 0, 0.101725, 4.483596, 174.247465)" fill-opacity="1" fill="#38b6ff" fill-rule="nonzero" stroke-linejoin="miter" d="M 212.66731 1680.796464 L 212.436909 1680.566064 C 208.404901 1676.111654 204.449692 1671.580445 200.686484 1667.049235 L 200.225684 1666.473234 L 200.916885 1666.242833 C 240.776169 1654.146808 282.440257 1640.169178 324.718746 1624.732346 C 380.706064 1604.303503 441.186192 1580.111452 509.653537 1550.85059 C 572.322469 1524.047333 634.3386 1496.168874 694.319526 1469.212017 L 694.511527 1469.672818 L 694.319526 1469.212017 L 696.930732 1468.021615 C 755.452455 1441.717559 815.970983 1414.491902 875.99031 1388.802248 C 925.987215 1367.336602 970.87691 1348.981364 1013.232199 1332.584529 L 1013.846601 1332.354129 L 1013.923401 1333.00693 C 1014.576202 1339.304543 1015.113803 1345.755757 1015.497804 1352.245371 L 1015.497804 1352.552571 L 1015.190603 1352.706172 C 917.807998 1400.514273 818.466988 1446.171969 720.00918 1488.373658 C 601.42973 1539.215365 479.739873 1587.061866 358.280417 1630.569158 C 310.779517 1647.618794 261.896214 1664.47643 212.97451 1680.681264 Z M 201.953687 1667.010835 C 205.486495 1671.234844 209.172902 1675.497253 212.97451 1679.644462 C 261.781013 1663.478027 310.549116 1646.620392 357.973216 1629.647556 C 479.394273 1586.101864 601.084129 1538.293763 719.62518 1487.452056 C 817.967787 1445.288767 917.193597 1399.707871 1014.461002 1351.93817 C 1014.115401 1345.832557 1013.6162 1339.726944 1013.001799 1333.736532 C 970.83851 1350.056566 926.140815 1368.373405 876.37431 1389.72385 C 816.393384 1415.413504 755.874856 1442.639161 697.353133 1468.943217 L 694.703527 1470.133619 C 634.761001 1497.090476 572.74487 1524.968935 510.075937 1551.772192 C 441.570193 1581.071454 381.051665 1605.225105 325.064347 1625.692348 C 283.016258 1641.01398 241.582571 1654.914809 201.953687 1667.010835 Z M 201.953687 1667.010835 " stroke="#c49a6d" stroke-width="1" stroke-opacity="1" stroke-miterlimit="10"/><path stroke-linecap="butt" transform="matrix(0.101725, 0, 0, 0.101725, 4.483596, 174.247465)" fill-opacity="1" fill="#38b6ff" fill-rule="nonzero" stroke-linejoin="miter" d="M 439.381388 1332.96853 C 329.595557 1376.475822 219.310524 1418.869511 108.64149 1460.149598 C 110.100693 1469.941619 111.905497 1479.73364 114.094302 1489.52566 C 169.505619 1468.712816 224.494535 1446.74797 279.21465 1424.207123 C 341.115581 1398.747869 402.670911 1372.482213 464.264641 1346.254958 C 526.127171 1319.912502 587.989702 1293.570047 650.159433 1267.995593 C 711.983563 1242.574739 774.114895 1217.921887 836.860627 1194.805038 C 868.195093 1183.285014 899.68316 1172.148991 931.363226 1161.435368 C 938.236841 1159.092963 945.110455 1156.827358 952.02247 1154.523353 C 946.339258 1145.460934 940.348845 1136.628916 934.012832 1128.065698 C 894.729549 1145.076933 855.369466 1161.934569 815.932583 1178.638604 C 691.017119 1231.553916 565.525654 1282.971624 439.381388 1332.96853 Z M 439.381388 1332.96853 " stroke="#c49a6d" stroke-width="1" stroke-opacity="1" stroke-miterlimit="10"/><path stroke-linecap="butt" transform="matrix(0.101725, 0, 0, 0.101725, 4.483596, 174.247465)" fill-opacity="1" fill="#38b6ff" fill-rule="nonzero" stroke-linejoin="miter" d="M 113.710301 1490.216862 L 113.595101 1489.640861 C 111.406296 1479.92564 109.601492 1470.018419 108.142289 1460.226399 L 108.065489 1459.803998 L 108.44949 1459.688797 C 218.964923 1418.48551 330.248358 1375.66942 439.227788 1332.507729 L 439.381388 1332.96853 L 439.227788 1332.507729 C 564.719253 1282.741224 691.40112 1230.824314 815.702182 1178.177803 C 854.409464 1161.780969 894.153548 1144.769733 933.820832 1127.604897 L 934.166432 1127.451296 L 934.435233 1127.796897 C 940.732846 1136.360115 946.800059 1145.268934 952.406471 1154.254553 L 952.752072 1154.830554 L 952.17607 1155.022554 C 944.841655 1157.44176 938.083241 1159.668964 931.516827 1161.896169 C 901.142363 1172.148991 869.347096 1183.361814 837.014227 1195.304239 C 780.719709 1216.040283 719.66358 1239.963534 650.351433 1268.456394 C 587.720901 1294.222848 525.051969 1320.910905 464.418241 1346.715759 L 462.997438 1347.33016 C 402.939711 1372.943014 340.80838 1399.40067 279.368251 1424.667923 C 218.542522 1449.743176 164.552008 1471.093621 114.247902 1490.024861 Z M 109.179091 1460.495199 C 110.599894 1469.941619 112.366298 1479.464839 114.439902 1488.872859 C 164.552008 1470.018419 218.388922 1448.706374 279.02265 1423.746322 C 340.424379 1398.479068 402.55571 1372.021412 462.613437 1346.408558 L 464.03424 1345.794157 C 524.667968 1319.989303 587.3369 1293.301246 649.967433 1267.534792 C 719.317979 1239.041932 780.374108 1215.080281 836.668627 1194.344237 C 869.039895 1182.440212 900.835162 1171.188989 931.171226 1160.936167 C 937.58404 1158.785762 944.150453 1156.596958 951.254468 1154.254553 C 945.801657 1145.576135 939.926445 1136.974516 933.859232 1128.680099 C 894.307148 1145.806535 854.678265 1162.740971 816.124583 1179.099405 C 691.785121 1231.745916 565.103254 1283.701226 439.573389 1333.429331 C 330.747559 1376.552622 219.579324 1419.291912 109.179091 1460.456799 Z M 109.179091 1460.495199 " stroke="#c49a6d" stroke-width="1" stroke-opacity="1" stroke-miterlimit="10"/><path stroke-linecap="butt" transform="matrix(0.101725, 0, 0, 0.101725, 4.483596, 174.247465)" fill-opacity="1" fill="#38b6ff" fill-rule="nonzero" stroke-linejoin="miter" d="M 469.909453 1429.967135 C 358.933218 1473.973628 246.996982 1515.407315 134.100744 1554.306597 C 137.211151 1562.101814 140.513557 1569.74343 144.046365 1577.231445 C 200.302484 1558.031405 256.097801 1537.679362 311.509118 1516.136917 C 435.38778 1468.175215 557.384837 1415.567104 678.997894 1362.306192 C 740.169223 1335.502935 801.263752 1308.507678 862.511881 1281.858022 C 893.116746 1268.533194 923.76001 1255.285166 954.480075 1242.152338 C 965.731299 1237.352328 977.020923 1232.552318 988.348947 1227.790708 C 985.622541 1220.609893 982.704135 1213.505878 979.593728 1206.555463 C 934.089632 1228.443509 888.316736 1249.947555 842.390239 1270.952399 C 719.62518 1327.093318 595.477718 1380.085429 469.909453 1429.967135 Z M 469.909453 1429.967135 " stroke="#c49a6d" stroke-width="1" stroke-opacity="1" stroke-miterlimit="10"/><path stroke-linecap="butt" transform="matrix(0.101725, 0, 0, 0.101725, 4.483596, 174.247465)" fill-opacity="1" fill="#38b6ff" fill-rule="nonzero" stroke-linejoin="miter" d="M 143.777564 1577.845847 L 143.585564 1577.461846 C 140.052757 1569.93543 136.711949 1562.217014 133.639943 1554.498597 L 133.409542 1554.037796 L 133.908744 1553.845796 C 246.574581 1515.023314 359.54762 1473.205626 469.717452 1429.506334 C 594.133715 1380.123829 719.433179 1326.670917 842.159838 1270.529998 C 887.433534 1249.832355 933.590431 1228.136309 979.401728 1206.094662 L 979.862529 1205.864262 L 980.054529 1206.363463 C 983.164936 1213.313877 986.083342 1220.456293 988.809748 1227.598708 L 988.963348 1228.059509 L 988.540947 1228.251509 C 977.251323 1233.013119 965.961699 1237.813129 954.672076 1242.613139 C 926.563216 1254.632365 896.495953 1267.611592 862.703882 1282.318823 C 823.766199 1299.253259 784.252516 1316.648496 746.044435 1333.429331 C 723.772388 1343.221352 701.500341 1352.974972 679.189894 1362.766993 C 569.288862 1410.920694 441.147792 1466.485612 311.662719 1516.597717 C 253.102595 1539.253765 198.34408 1559.221807 144.199965 1577.730646 Z M 134.753545 1554.613798 C 137.710352 1562.025013 140.935958 1569.436229 144.315166 1576.617044 C 198.305679 1558.185005 252.910595 1538.255363 311.317118 1515.637715 C 440.802191 1465.56401 568.904862 1409.999093 678.805893 1361.845391 C 701.07794 1352.09177 723.349987 1342.29975 745.622034 1332.507729 C 783.868515 1315.726894 823.382199 1298.331657 862.319881 1281.397221 C 896.111952 1266.68999 926.179216 1253.710763 954.288075 1241.691537 C 965.385698 1236.929927 976.560122 1232.206717 987.696145 1227.521907 C 985.12334 1220.686693 982.320134 1213.889879 979.363328 1207.208265 C 933.705631 1229.173111 887.702334 1250.792357 842.582239 1271.4132 C 719.85558 1327.554119 594.517716 1381.045431 470.063053 1430.427936 L 469.909453 1429.928735 L 470.063053 1430.427936 C 360.046821 1474.050428 247.227383 1515.829716 134.753545 1554.613798 Z M 134.753545 1554.613798 " stroke="#c49a6d" stroke-width="1" stroke-opacity="1" stroke-miterlimit="10"/><path stroke-linecap="butt" transform="matrix(0.101725, 0, 0, 0.101725, 4.483596, 174.247465)" fill-opacity="1" fill="#38b6ff" fill-rule="nonzero" stroke-linejoin="miter" d="M 707.413954 1517.55772 C 647.202627 1543.132173 586.607299 1567.785026 525.58957 1591.516276 C 464.917442 1615.132325 403.899713 1637.826773 342.497984 1659.561219 C 305.173105 1672.809247 267.694626 1685.673274 230.100947 1698.230101 C 235.054557 1703.068511 240.123368 1707.830121 245.307379 1712.438131 C 291.425876 1695.772496 337.467573 1678.91486 383.43247 1661.826824 C 498.747913 1618.857133 613.487356 1574.46664 727.689197 1528.578543 C 823.689399 1489.986461 919.267201 1450.357578 1014.384202 1409.691892 C 1015.229003 1398.824669 1015.689804 1387.919046 1015.689804 1376.936623 C 973.027314 1397.787867 930.134424 1418.13991 887.011133 1438.031152 C 827.567807 1465.44881 767.702081 1491.944865 707.413954 1517.55772 Z M 707.413954 1517.55772 " stroke="#c49a6d" stroke-width="1" stroke-opacity="1" stroke-miterlimit="10"/><path stroke-linecap="butt" transform="matrix(0.101725, 0, 0, 0.101725, 4.483596, 174.247465)" fill-opacity="1" fill="#38b6ff" fill-rule="nonzero" stroke-linejoin="miter" d="M 245.192178 1712.975732 L 244.961778 1712.783732 C 239.777767 1708.175722 234.670556 1703.375712 229.755346 1698.575702 L 229.179345 1697.9997 L 229.947346 1697.7309 C 267.617826 1685.174073 305.441906 1672.194846 342.344383 1659.100418 C 403.438912 1637.442773 465.032642 1614.556324 525.43597 1591.055475 C 586.146498 1567.439425 647.317827 1542.556172 707.221953 1517.096919 C 767.12608 1491.637665 827.567807 1464.872808 886.819132 1437.570351 C 929.558423 1417.871109 972.873714 1397.288666 1015.497804 1376.475822 L 1016.189005 1376.130221 L 1016.189005 1376.936623 C 1016.189005 1387.803846 1015.766605 1398.824669 1014.883403 1409.730292 L 1014.845003 1410.037493 L 1014.576202 1410.152693 C 919.228801 1450.895179 822.767797 1490.869663 727.881197 1529.039344 C 614.255357 1574.69704 498.402313 1619.509935 383.58607 1662.287625 C 338.312375 1679.145261 291.848277 1696.156496 245.499379 1712.898932 Z M 231.060949 1698.422101 C 235.707358 1702.991711 240.545769 1707.48452 245.422579 1711.86213 C 291.694677 1695.158094 338.043574 1678.185258 383.24047 1661.366023 C 498.056712 1618.588333 613.871356 1573.775438 727.497196 1528.117742 C 822.306996 1489.986461 918.6528 1450.050377 1013.923401 1409.346291 C 1014.729802 1398.863069 1015.152203 1388.226247 1015.190603 1377.743024 C 972.796914 1398.440668 929.750423 1418.869511 887.241533 1438.491953 C 827.990208 1465.79441 767.548481 1492.559267 707.605954 1518.01852 L 707.413954 1517.55772 L 707.605954 1518.01852 C 647.701828 1543.477774 586.530499 1568.361027 525.781571 1592.015477 C 465.378243 1615.516326 403.784513 1638.402775 342.689984 1660.06042 C 306.017907 1673.039648 268.462628 1685.942075 231.060949 1698.422101 Z M 231.060949 1698.422101 " stroke="#c49a6d" stroke-width="1" stroke-opacity="1" stroke-miterlimit="10"/><path stroke-linecap="butt" transform="matrix(0.101725, 0, 0, 0.101725, 4.483596, 174.247465)" fill-opacity="1" fill="#38b6ff" fill-rule="nonzero" stroke-linejoin="miter" d="M 665.903466 1285.77483 C 600.277728 1312.693287 535.03599 1340.456546 469.794252 1368.258204 C 404.514115 1396.059863 339.233977 1423.861522 273.608238 1450.779979 C 222.536131 1471.708023 171.272022 1492.060066 119.585513 1511.490507 C 120.276715 1513.909712 120.967916 1516.328917 121.697518 1518.709722 C 123.156721 1523.586532 124.692724 1528.424942 126.305528 1533.186552 C 183.598448 1513.448911 240.622569 1493.058468 297.454689 1472.015223 C 423.099754 1425.435925 547.516016 1375.66942 670.626676 1322.715708 C 771.388489 1279.362017 871.151899 1233.896321 969.955308 1186.28022 C 967.920104 1182.286612 965.846499 1178.331404 963.696095 1174.414595 C 930.288024 1185.358618 897.071954 1196.840243 864.009484 1208.859468 C 797.385344 1232.974719 731.452405 1258.933174 665.903466 1285.77483 Z M 665.903466 1285.77483 " stroke="#c49a6d" stroke-width="1" stroke-opacity="1" stroke-miterlimit="10"/><path stroke-linecap="butt" transform="matrix(0.101725, 0, 0, 0.101725, 4.483596, 174.247465)" fill-opacity="1" fill="#38b6ff" fill-rule="nonzero" stroke-linejoin="miter" d="M 125.998327 1533.800954 L 125.806326 1533.340153 C 124.155123 1528.424942 122.61912 1523.548132 121.198317 1518.863322 C 120.545515 1516.712918 119.892714 1514.408913 119.124712 1511.605707 L 118.971112 1511.183306 L 119.431913 1511.029706 C 167.009613 1493.135268 217.39052 1473.282426 273.416238 1450.319178 C 338.811576 1423.515921 404.898115 1395.330262 468.83425 1368.104604 L 469.602252 1367.797403 C 533.691987 1340.494946 599.932127 1312.270886 665.711466 1285.314029 L 665.903466 1285.77483 L 665.711466 1285.314029 C 739.324421 1255.169966 804.105358 1230.017913 863.855884 1208.398667 C 897.993556 1196.033841 931.516827 1184.437017 963.542494 1173.953794 L 963.926495 1173.800194 L 964.118496 1174.184195 C 966.2305 1177.985803 968.342504 1181.979411 970.416109 1186.04982 L 970.646509 1186.510621 L 970.185708 1186.741021 C 871.2671 1234.395522 770.543687 1280.283619 670.818677 1323.176509 C 548.284018 1375.899821 422.754153 1426.127127 297.646689 1472.476024 C 241.620971 1493.250468 184.020849 1513.832912 126.459128 1533.647353 Z M 120.199915 1511.797707 C 120.929516 1514.370513 121.543917 1516.520917 122.158319 1518.594522 C 123.502322 1523.125731 124.999925 1527.810541 126.612728 1532.533751 C 184.020849 1512.757709 241.42897 1492.252066 297.262688 1471.554422 C 422.370152 1425.205525 547.900017 1374.978219 670.434676 1322.254907 C 769.967686 1279.438817 870.499098 1233.62752 969.302507 1186.04982 C 967.344102 1182.286612 965.385698 1178.561804 963.427294 1175.028997 C 931.555227 1185.473819 898.185556 1196.993843 864.201485 1209.320269 C 804.450959 1230.939515 739.670022 1256.129968 666.095467 1286.235631 C 600.316128 1313.192488 534.075988 1341.416548 469.986253 1368.719005 L 469.218251 1369.026206 C 405.282116 1396.251864 339.195577 1424.437523 273.761839 1451.24078 C 217.928121 1474.127228 167.662415 1493.94167 120.199915 1511.797707 Z M 120.199915 1511.797707 " stroke="#c49a6d" stroke-width="1" stroke-opacity="1" stroke-miterlimit="10"/><path stroke-linecap="butt" transform="matrix(0.101725, 0, 0, 0.101725, 4.483596, 174.247465)" fill-opacity="1" fill="#38b6ff" fill-rule="nonzero" stroke-linejoin="miter" d="M 705.64755 1375.055019 C 639.945011 1403.89348 574.127273 1432.57834 508.002333 1460.495199 C 442.261394 1488.296858 376.174855 1515.292115 309.550714 1540.943369 C 258.133006 1560.757811 206.408097 1579.61225 154.299187 1597.545088 C 156.910392 1602.383499 159.598398 1607.183509 162.401604 1611.906719 L 330.862759 1544.898577 L 700.501939 1397.941467 L 1003.747379 1277.365213 C 1002.057776 1270.414798 1000.137772 1263.464383 998.102567 1256.513969 C 997.334566 1253.979563 996.528164 1251.483558 995.760162 1248.987553 C 964.771297 1262.08198 933.820832 1275.291608 902.947166 1288.693237 C 837.091028 1317.224497 771.388489 1346.216558 705.64755 1375.055019 Z M 705.64755 1375.055019 " stroke="#c49a6d" stroke-width="1" stroke-opacity="1" stroke-miterlimit="10"/><path stroke-linecap="butt" transform="matrix(0.101725, 0, 0, 0.101725, 4.483596, 174.247465)" fill-opacity="1" fill="#38b6ff" fill-rule="nonzero" stroke-linejoin="miter" d="M 162.171203 1612.52112 L 161.979203 1612.137119 C 159.175997 1607.452309 156.449591 1602.613899 153.838386 1597.775489 L 153.569585 1597.276288 L 154.145586 1597.084287 C 203.796891 1580.073051 256.021001 1561.026611 309.358714 1540.482568 C 370.146042 1517.096919 435.080579 1490.792863 507.810333 1460.034398 C 575.317675 1431.541538 642.671417 1402.127076 705.45555 1374.594218 C 721.045983 1367.759003 736.598015 1360.923789 752.188448 1354.050174 C 801.494152 1332.392529 852.48946 1310.005282 902.755166 1288.232436 C 935.856036 1273.909205 966.1921 1260.929978 995.529762 1248.526752 L 996.028963 1248.296351 L 996.220963 1248.833952 C 997.142565 1251.752359 997.872167 1254.133164 998.563368 1256.360368 C 1000.598573 1263.195583 1002.518577 1270.222798 1004.20818 1277.250012 L 1004.32338 1277.672413 Z M 155.028788 1597.813889 C 157.447993 1602.345098 160.020799 1606.837908 162.632004 1611.253917 L 1003.132978 1277.058012 C 1001.481774 1270.184397 999.60017 1263.349183 997.603366 1256.667569 C 996.988965 1254.555564 996.297763 1252.32836 995.414562 1249.640354 C 966.2305 1262.00518 936.048036 1274.907607 903.177567 1289.154038 C 852.873461 1310.926883 801.916553 1333.314131 752.610849 1354.971776 C 737.020416 1361.806991 721.429983 1368.680605 705.839551 1375.51582 C 643.093818 1403.048678 575.701676 1432.46314 508.194333 1460.956 C 435.42618 1491.714465 370.530043 1518.01852 309.742715 1541.44257 C 256.597002 1561.871413 204.526493 1580.841053 155.028788 1597.813889 Z M 155.028788 1597.813889 " stroke="#c49a6d" stroke-width="1" stroke-opacity="1" stroke-miterlimit="10"/><path stroke-linecap="butt" transform="matrix(0.101725, 0, 0, 0.101725, 4.483596, 174.247465)" fill-opacity="1" fill="#38b6ff" fill-rule="nonzero" stroke-linejoin="miter" d="M 586.453699 949.582121 C 555.618434 948.698919 524.975169 950.734123 494.562305 955.764534 C 464.14944 960.756544 434.466178 968.628561 405.550917 979.342184 C 376.674056 990.094206 349.025998 1003.495835 322.721942 1019.547069 C 296.417887 1035.636702 271.880235 1054.068741 249.108987 1074.881585 C 319.189135 1051.956737 388.693281 1027.342285 457.583027 1001.038229 C 500.821518 984.564595 543.752808 967.399758 586.453699 949.582121 Z M 586.453699 949.582121 " stroke="#c49a6d" stroke-width="1" stroke-opacity="1" stroke-miterlimit="10"/><path stroke-linecap="butt" transform="matrix(0.101725, 0, 0, 0.101725, 4.483596, 174.247465)" fill-opacity="1" fill="#38b6ff" fill-rule="nonzero" stroke-linejoin="miter" d="M 247.073782 1076.071988 L 248.763386 1074.497585 C 301.832298 1025.575881 364.38603 990.094206 434.658178 969.089362 C 484.155883 954.190131 534.76719 947.546917 586.453699 949.08292 L 588.757703 949.15972 L 586.645699 950.042922 C 543.944809 967.860559 500.591117 985.178996 457.775027 1001.49903 C 389.192482 1027.687886 319.073934 1052.532738 249.262587 1075.342386 Z M 571.746468 949.889322 C 525.167169 949.927722 479.547873 956.647736 434.926979 970.049364 C 365.538032 990.785408 303.713902 1025.652681 251.144191 1073.691183 C 320.187537 1051.035135 389.576483 1026.459083 457.391026 1000.577429 C 499.515915 984.526195 542.101605 967.514959 584.111294 950.042922 C 579.964085 949.927722 575.855276 949.889322 571.746468 949.889322 Z M 571.746468 949.889322 " stroke="#c49a6d" stroke-width="1" stroke-opacity="1" stroke-miterlimit="10"/><path stroke-linecap="butt" transform="matrix(0.101725, 0, 0, 0.101725, 4.483596, 174.247465)" fill-opacity="1" fill="#38b6ff" fill-rule="nonzero" stroke-linejoin="miter" d="M 666.479467 1204.597059 C 599.932127 1231.976317 533.077586 1258.625973 465.877444 1284.507628 C 398.408502 1310.504483 330.593959 1335.733336 262.510615 1360.194187 C 209.979304 1379.048627 157.255993 1397.442266 104.379081 1415.375104 C 104.686282 1422.632719 105.185483 1429.890335 105.838284 1437.18635 C 159.175997 1417.295108 212.398509 1397.135065 265.505821 1376.706222 C 392.149289 1328.05332 518.178354 1277.902814 643.631419 1226.293105 C 736.022014 1188.277025 828.067008 1149.454543 919.766402 1109.825659 C 916.963196 1106.446452 914.08319 1103.067245 911.164784 1099.764838 C 895.843151 1106.561652 880.521519 1113.358467 865.161487 1120.078481 C 799.266948 1148.993742 733.026808 1177.179401 666.479467 1204.597059 Z M 666.479467 1204.597059 " stroke="#c49a6d" stroke-width="1" stroke-opacity="1" stroke-miterlimit="10"/><path stroke-linecap="butt" transform="matrix(0.101725, 0, 0, 0.101725, 4.483596, 174.247465)" fill-opacity="1" fill="#38b6ff" fill-rule="nonzero" stroke-linejoin="miter" d="M 105.415883 1437.877551 L 105.339083 1437.22475 C 104.686282 1430.005535 104.187081 1422.671119 103.87988 1415.375104 L 103.87988 1415.029503 L 104.225481 1414.875903 C 157.217593 1396.943065 210.401705 1378.357426 262.357015 1359.694986 C 330.056357 1335.426135 398.446902 1309.966881 465.685444 1284.046827 C 532.578385 1258.280372 600.047327 1231.400316 666.287467 1204.136258 L 666.479467 1204.597059 L 666.287467 1204.136258 C 732.604407 1176.8338 799.420548 1148.37934 864.969486 1119.61768 C 879.676717 1113.166466 895.15195 1106.331252 910.972783 1099.304037 L 911.318384 1099.150437 L 911.548785 1099.419237 C 914.390391 1102.606444 917.270397 1106.024051 920.150403 1109.518458 L 920.572804 1110.017659 L 919.996802 1110.28646 C 828.259009 1149.915344 735.330813 1189.083426 643.82342 1226.753906 C 518.984756 1278.133214 391.726888 1328.744521 265.697822 1377.205423 C 213.089711 1397.403866 159.367997 1417.755909 106.030285 1437.647151 Z M 104.916682 1415.720705 C 105.185483 1422.632719 105.646284 1429.621534 106.299085 1436.495148 C 159.406397 1416.642307 212.93611 1396.405464 265.313821 1376.245421 C 391.381287 1327.784519 518.600755 1277.173212 643.439419 1225.832304 C 734.754812 1188.238625 827.452607 1149.147342 918.96 1109.633659 C 916.310395 1106.446452 913.660789 1103.297645 911.049584 1100.340839 C 895.34395 1107.329654 879.983918 1114.126468 865.353487 1120.539282 C 799.804549 1149.300942 732.988408 1177.755402 666.671468 1205.05786 C 600.431328 1232.321918 532.923986 1259.201974 466.069445 1284.968429 C 398.792503 1310.888483 330.401958 1336.347737 262.702615 1360.654988 C 210.862506 1379.279028 157.793594 1397.787867 104.916682 1415.720705 Z M 104.916682 1415.720705 " stroke="#c49a6d" stroke-width="1" stroke-opacity="1" stroke-miterlimit="10"/><path fill="#38b6ff" d="M 62.980469 359.90625 C 67.859375 359.621094 72.589844 358.625 77.171875 356.921875 C 81.757812 355.21875 85.988281 352.878906 89.867188 349.902344 L 73.28125 356.074219 Z M 62.980469 359.90625 " fill-opacity="1" fill-rule="nonzero"/><g clip-path="url(#49e8c9db5b)"><path stroke-linecap="butt" transform="matrix(0.101725, 0, 0, 0.101725, 4.483596, 174.247465)" fill="none" stroke-linejoin="miter" d="M 575.048875 1825.103969 C 623.010576 1822.300763 669.513074 1812.508742 714.556369 1795.766307 C 759.638064 1779.023871 801.225352 1756.022223 839.356632 1726.761361 L 676.309888 1787.433489 Z M 575.048875 1825.103969 " stroke="#c49a6d" stroke-width="1" stroke-opacity="1" stroke-miterlimit="10"/></g><path fill="#38b6ff" d="M 62.644531 359.976562 L 90.164062 349.738281 L 89.898438 349.945312 C 85.15625 353.597656 79.914062 356.277344 74.175781 357.980469 C 70.523438 359.074219 66.789062 359.734375 62.980469 359.957031 Z M 89.566406 350.070312 L 63.316406 359.832031 C 67 359.59375 70.609375 358.941406 74.148438 357.882812 C 79.761719 356.214844 84.902344 353.609375 89.566406 350.070312 Z M 89.566406 350.070312 " fill-opacity="1" fill-rule="nonzero"/><g clip-path="url(#a8e415fb51)"><path stroke-linecap="butt" transform="matrix(0.101725, 0, 0, 0.101725, 4.483596, 174.247465)" fill="none" stroke-linejoin="miter" d="M 571.746468 1825.79517 L 842.275038 1725.148558 L 839.663833 1727.183762 C 793.046135 1763.087838 741.513226 1789.430293 685.103507 1806.172729 C 649.199431 1816.924751 612.488954 1823.414365 575.048875 1825.60317 Z M 836.399826 1728.412564 L 578.351281 1824.374367 C 614.562558 1822.031962 650.044233 1815.619149 684.834706 1805.212727 C 740.015623 1788.815892 790.550129 1763.203038 836.399826 1728.412564 Z M 836.399826 1728.412564 " stroke="#c49a6d" stroke-width="1" stroke-opacity="1" stroke-miterlimit="10"/></g><path stroke-linecap="butt" transform="matrix(0.101725, 0, 0, 0.101725, 4.483596, 174.247465)" fill-opacity="1" fill="#38b6ff" fill-rule="nonzero" stroke-linejoin="miter" d="M 611.02975 1684.060471 C 523.746366 1717.852542 435.810181 1749.91661 347.221194 1780.291074 C 354.133208 1783.593481 361.083623 1786.742288 368.149238 1789.737494 C 405.934918 1776.796667 443.605397 1763.625439 481.199076 1750.18541 C 585.186496 1712.975732 688.405914 1673.730849 790.85733 1632.527562 C 852.950261 1607.529109 914.735991 1581.839455 976.214521 1555.381799 C 980.745731 1545.474578 984.93134 1535.413757 988.732948 1525.199336 C 974.064117 1531.84255 959.395286 1538.485764 944.688055 1545.052178 C 834.671822 1594.127481 723.426788 1640.476379 611.02975 1684.060471 Z M 611.02975 1684.060471 " stroke="#c49a6d" stroke-width="1" stroke-opacity="1" stroke-miterlimit="10"/><path stroke-linecap="butt" transform="matrix(0.101725, 0, 0, 0.101725, 4.483596, 174.247465)" fill-opacity="1" fill="#38b6ff" fill-rule="nonzero" stroke-linejoin="miter" d="M 368.149238 1790.275095 L 367.957237 1790.198295 C 360.968423 1787.241489 353.902808 1784.054282 347.029193 1780.751875 L 345.915591 1780.214274 L 347.067593 1779.791873 C 435.50298 1749.494209 524.245567 1717.122941 610.83775 1683.59967 C 721.813984 1640.629979 834.057421 1593.858681 944.457654 1544.591377 C 958.819284 1538.178563 973.603316 1531.496949 988.502547 1524.738535 L 989.616149 1524.239334 L 989.193748 1525.352936 C 985.39214 1535.528957 981.206532 1545.704979 976.675322 1555.5738 L 976.598522 1555.7658 L 976.406522 1555.8426 C 915.235192 1582.146656 852.873461 1608.105111 791.04933 1632.988363 C 689.097115 1673.99965 584.917695 1713.590133 481.352677 1750.646211 C 444.142998 1763.97104 406.088518 1777.295868 368.302838 1790.198295 Z M 348.565197 1780.367874 C 355.01641 1783.478281 361.621224 1786.435087 368.187638 1789.199893 C 405.896518 1776.297466 443.835798 1763.011038 481.007076 1749.724609 C 584.533695 1712.668531 688.751514 1673.078048 790.66533 1632.066761 C 852.45106 1607.183509 914.735991 1581.263454 975.83052 1554.997799 C 980.169729 1545.551379 984.201738 1535.874558 987.849746 1526.159338 C 973.296115 1532.764152 958.857684 1539.253765 944.880055 1545.474578 C 834.479822 1594.780282 722.197985 1641.551581 611.183351 1684.521272 L 611.02975 1684.060471 L 611.183351 1684.521272 C 524.975169 1717.929342 436.616582 1750.14701 348.565197 1780.367874 Z M 348.565197 1780.367874 " stroke="#c49a6d" stroke-width="1" stroke-opacity="1" stroke-miterlimit="10"/><path stroke-linecap="butt" transform="matrix(0.101725, 0, 0, 0.101725, 4.483596, 174.247465)" fill-opacity="1" fill="#38b6ff" fill-rule="nonzero" stroke-linejoin="miter" d="M 574.626474 1658.140416 C 485.999087 1692.96929 396.834098 1726.37736 307.131509 1758.364628 C 311.317118 1760.937433 315.502727 1763.433438 319.765136 1765.852643 C 365.115631 1750.454211 410.312527 1734.633378 455.355822 1718.351743 C 567.714459 1677.686057 678.997894 1634.217166 789.206126 1587.983468 C 859.439875 1558.492206 929.136022 1527.887341 998.371368 1496.168874 C 1000.252972 1489.717661 1002.019376 1483.228047 1003.593779 1476.700033 C 973.488115 1490.370462 943.305652 1503.848891 913.046388 1517.212119 C 801.225352 1566.441023 688.405914 1613.442722 574.626474 1658.140416 Z M 574.626474 1658.140416 " stroke="#c49a6d" stroke-width="1" stroke-opacity="1" stroke-miterlimit="10"/><path stroke-linecap="butt" transform="matrix(0.101725, 0, 0, 0.101725, 4.483596, 174.247465)" fill-opacity="1" fill="#38b6ff" fill-rule="nonzero" stroke-linejoin="miter" d="M 319.726736 1766.390245 L 319.534735 1766.275044 C 315.349126 1763.894239 311.086717 1761.359834 306.862709 1758.787029 L 305.979507 1758.249427 L 306.939509 1757.903827 C 396.526898 1725.916559 486.536688 1692.201288 574.434473 1657.679615 C 687.714712 1613.173921 801.570953 1565.749821 912.854387 1516.751318 C 942.768051 1503.54169 973.257715 1489.948061 1003.401778 1476.239232 L 1004.32338 1475.816831 L 1004.09298 1476.815234 C 1002.518577 1483.228047 1000.752173 1489.794461 998.832169 1496.322475 L 998.793769 1496.514475 L 998.563368 1496.629675 C 929.404822 1528.348142 859.017474 1559.221807 789.398127 1588.444269 C 679.689095 1634.485966 567.368858 1678.338859 455.547822 1718.812544 C 411.157329 1734.863778 365.538032 1750.876612 319.918736 1766.351845 Z M 308.283512 1758.479828 C 312.12352 1760.822233 316.001928 1763.126238 319.803536 1765.315042 C 365.346032 1749.87821 410.888528 1733.903776 455.202222 1717.852542 C 567.023258 1677.417257 679.343495 1633.564364 789.014126 1587.522667 C 858.556673 1558.338606 928.867221 1527.46494 997.948967 1495.823274 C 999.753771 1489.717661 1001.404974 1483.612048 1002.864177 1477.583235 C 973.027314 1491.138464 942.883251 1504.578492 913.238388 1517.63452 C 801.954953 1566.671423 688.098713 1614.095523 574.780074 1658.601217 L 574.626474 1658.140416 L 574.780074 1658.601217 C 487.227889 1693.00769 397.5637 1726.607761 308.283512 1758.479828 Z M 308.283512 1758.479828 " stroke="#c49a6d" stroke-width="1" stroke-opacity="1" stroke-miterlimit="10"/><path stroke-linecap="butt" transform="matrix(0.101725, 0, 0, 0.101725, 4.483596, 174.247465)" fill-opacity="1" fill="#38b6ff" fill-rule="nonzero" stroke-linejoin="miter" d="M 626.543383 1720.694148 C 551.816825 1748.918208 476.706267 1776.067065 401.211708 1802.17912 C 410.350927 1805.212727 419.566946 1807.977532 428.898166 1810.435138 C 453.935019 1801.718319 478.933472 1792.886301 503.855124 1783.900682 C 595.477718 1750.953412 686.48591 1716.316539 776.8029 1680.028462 C 833.71182 1657.180414 890.35194 1633.717965 946.684859 1609.564314 C 951.523269 1601.999498 956.092879 1594.281081 960.470488 1586.485865 C 952.21447 1590.018672 943.920053 1593.51308 935.664036 1597.007487 C 833.48142 1640.245978 730.415602 1681.487665 626.543383 1720.694148 Z M 626.543383 1720.694148 " stroke="#c49a6d" stroke-width="1" stroke-opacity="1" stroke-miterlimit="10"/><path stroke-linecap="butt" transform="matrix(0.101725, 0, 0, 0.101725, 4.483596, 174.247465)" fill-opacity="1" fill="#38b6ff" fill-rule="nonzero" stroke-linejoin="miter" d="M 428.936566 1810.972739 L 428.782966 1810.934339 C 419.528546 1808.476733 410.197327 1805.711928 401.058107 1802.639921 L 399.637304 1802.17912 L 401.058107 1801.718319 C 476.475866 1775.606264 552.277626 1748.227006 626.389783 1720.233347 C 729.762801 1681.218865 833.75022 1639.593177 935.472035 1596.585086 C 943.728053 1593.052279 951.98407 1589.557871 960.278487 1586.025064 L 961.62249 1585.449063 L 960.892889 1586.716265 C 956.55368 1594.511482 951.94567 1602.306698 947.10726 1609.833114 L 947.03046 1609.948314 L 946.915259 1610.025115 C 890.659141 1634.101965 833.48142 1657.833216 776.994901 1680.527663 C 687.061911 1716.62374 595.247317 1751.567813 504.047125 1784.361483 C 479.471073 1793.231901 454.24222 1802.14072 429.090166 1810.934339 Z M 402.786111 1802.17912 C 411.426129 1805.020726 420.181348 1807.631932 428.898166 1809.935937 C 454.011819 1801.180718 479.163872 1792.271899 503.701524 1783.439881 C 594.901716 1750.607811 686.71631 1715.702138 776.6493 1679.567661 C 833.059019 1656.911614 890.15994 1633.218764 946.377658 1609.141913 C 950.870468 1602.076298 955.209677 1594.818683 959.318485 1587.522667 C 951.484869 1590.863474 943.689652 1594.165881 935.856036 1597.506688 C 834.134221 1640.514779 730.108402 1682.140467 626.735384 1721.154949 L 626.543383 1720.694148 L 626.735384 1721.154949 C 553.084028 1748.995008 477.743069 1776.220665 402.786111 1802.17912 Z M 402.786111 1802.17912 " stroke="#c49a6d" stroke-width="1" stroke-opacity="1" stroke-miterlimit="10"/><path fill="#38b6ff" d="M 68.621094 353.402344 C 63.234375 355.4375 57.828125 357.417969 52.398438 359.335938 C 53.777344 359.566406 55.167969 359.738281 56.578125 359.84375 L 61.835938 357.890625 L 86.40625 348.75 L 94.632812 345.691406 C 95.933594 344.371094 97.152344 342.984375 98.289062 341.519531 C 97.597656 341.8125 96.90625 342.105469 96.210938 342.398438 C 87.082031 346.234375 77.886719 349.902344 68.621094 353.402344 Z M 68.621094 353.402344 " fill-opacity="1" fill-rule="nonzero"/><g clip-path="url(#306894cde0)"><path stroke-linecap="butt" transform="matrix(0.101725, 0, 0, 0.101725, 4.483596, 174.247465)" fill="none" stroke-linejoin="miter" d="M 630.498592 1761.167834 C 577.54488 1781.174276 524.399168 1800.643117 471.023055 1819.497557 C 484.578284 1821.763161 498.248712 1823.452765 512.111142 1824.489567 L 563.797651 1805.289527 L 805.33416 1715.433337 L 886.204731 1685.366074 C 898.991958 1672.386846 910.972783 1658.754817 922.147207 1644.354787 C 915.350393 1647.234793 908.553578 1650.114799 901.718364 1652.994805 C 811.977375 1690.703685 721.583584 1726.761361 630.498592 1761.167834 Z M 630.498592 1761.167834 " stroke="#c49a6d" stroke-width="1" stroke-opacity="1" stroke-miterlimit="10"/></g><path fill="#38b6ff" d="M 56.585938 359.898438 L 56.574219 359.894531 C 55.171875 359.789062 53.765625 359.617188 52.386719 359.386719 L 52.195312 359.355469 L 52.378906 359.289062 C 57.847656 357.355469 63.304688 355.359375 68.601562 353.355469 L 68.621094 353.402344 L 68.601562 353.355469 C 77.824219 349.871094 87.105469 346.167969 96.191406 342.351562 C 96.886719 342.058594 97.578125 341.765625 98.269531 341.472656 L 98.449219 341.398438 L 98.332031 341.550781 C 97.191406 343.015625 95.972656 344.40625 94.667969 345.726562 L 94.652344 345.738281 Z M 52.601562 359.320312 C 53.90625 359.53125 55.242188 359.691406 56.570312 359.792969 L 94.605469 345.644531 C 95.855469 344.378906 97.03125 343.042969 98.128906 341.644531 C 97.496094 341.910156 96.863281 342.179688 96.230469 342.445312 C 87.144531 346.261719 77.859375 349.964844 68.636719 353.453125 C 63.402344 355.429688 58.007812 357.402344 52.601562 359.320312 Z M 52.601562 359.320312 " fill-opacity="1" fill-rule="nonzero"/><g clip-path="url(#7db57a6a9b)"><path stroke-linecap="butt" transform="matrix(0.101725, 0, 0, 0.101725, 4.483596, 174.247465)" fill="none" stroke-linejoin="miter" d="M 512.187942 1825.027168 L 512.072742 1824.988768 C 498.287113 1823.951966 484.463083 1822.262363 470.907855 1819.996758 L 469.026251 1819.689557 L 470.831055 1819.036756 C 524.591168 1800.028716 578.236081 1780.406274 630.306591 1760.707033 L 630.498592 1761.167834 L 630.306591 1760.707033 C 720.969182 1726.45416 812.207775 1690.050884 901.526363 1652.534004 C 908.361578 1649.653998 915.158392 1646.773992 921.955207 1643.893986 L 923.72161 1643.164385 L 922.569608 1644.661988 C 911.356784 1659.062018 899.375959 1672.732447 886.550332 1685.711674 L 886.396732 1685.826875 Z M 473.019859 1819.343956 C 485.845486 1821.417561 498.978314 1822.991964 512.034342 1823.990366 L 885.935931 1684.905273 C 898.223957 1672.463646 909.782381 1659.330819 920.572804 1645.58359 C 914.351991 1648.194795 908.131177 1650.844401 901.910364 1653.455606 C 812.591776 1690.972485 721.314783 1727.375762 630.652192 1761.667035 C 579.196083 1781.097476 526.165571 1800.489517 473.019859 1819.343956 Z M 473.019859 1819.343956 " stroke="#c49a6d" stroke-width="1" stroke-opacity="1" stroke-miterlimit="10"/></g><path stroke-linecap="butt" transform="matrix(0.101725, 0, 0, 0.101725, 4.483596, 174.247465)" fill-opacity="1" fill="#38b6ff" fill-rule="nonzero" stroke-linejoin="miter" d="M 542.332005 1625.653948 C 450.325411 1661.097222 357.973216 1695.580495 265.237021 1729.142166 C 271.227433 1733.865376 277.371446 1738.434986 283.592259 1742.812595 C 328.097953 1727.068562 372.450047 1710.940528 416.68694 1694.466893 C 530.696781 1652.034803 643.78502 1607.337109 755.951656 1560.33541 C 840.969436 1524.700135 925.449614 1487.759257 1009.315391 1449.512776 C 1010.121793 1444.789566 1010.889794 1440.027956 1011.580996 1435.266346 C 969.456107 1453.199184 927.292818 1470.940021 885.014329 1488.527258 C 771.388489 1535.682558 657.186648 1581.417054 542.332005 1625.653948 Z M 542.332005 1625.653948 " stroke="#c49a6d" stroke-width="1" stroke-opacity="1" stroke-miterlimit="10"/><path stroke-linecap="butt" transform="matrix(0.101725, 0, 0, 0.101725, 4.483596, 174.247465)" fill-opacity="1" fill="#38b6ff" fill-rule="nonzero" stroke-linejoin="miter" d="M 283.515459 1743.388596 L 283.285059 1743.234996 C 277.141046 1738.895787 270.958633 1734.287777 264.92982 1729.526167 L 264.238619 1728.950166 L 265.08342 1728.642965 C 358.088417 1695.004494 451.285413 1660.214021 542.140005 1625.193147 C 656.457046 1581.148254 771.73409 1534.991356 884.822328 1488.066457 C 926.563216 1470.709621 969.110506 1452.815183 1011.388995 1434.805545 L 1012.195397 1434.459944 L 1012.080197 1435.304746 C 1011.388995 1439.989556 1010.659394 1444.789566 1009.776192 1449.627976 L 1009.737792 1449.858377 L 1009.507391 1449.973577 C 925.872015 1488.104857 840.623835 1525.391336 756.143657 1560.796211 C 644.514621 1607.567509 530.35118 1652.726005 416.878941 1694.966094 C 373.333249 1711.170928 328.558754 1727.414162 283.74586 1743.311796 Z M 266.273823 1729.295766 C 271.995435 1733.788576 277.832247 1738.127785 283.66906 1742.274994 C 328.366754 1726.41576 373.064448 1710.210926 416.49494 1694.006092 C 530.005579 1651.766003 644.13062 1606.645908 755.759656 1559.874609 C 840.163034 1524.508134 925.334414 1487.260056 1008.85459 1449.167175 C 1009.622592 1444.751166 1010.313793 1440.335157 1010.928194 1436.072748 C 968.956906 1453.967185 926.678417 1471.746423 885.206329 1488.988059 C 772.11809 1535.951358 656.802647 1582.069856 542.524006 1626.114749 L 542.332005 1625.653948 L 542.524006 1626.114749 C 451.938215 1661.020422 358.971619 1695.734096 266.273823 1729.295766 Z M 266.273823 1729.295766 " stroke="#c49a6d" stroke-width="1" stroke-opacity="1" stroke-miterlimit="10"/><path stroke-linecap="butt" transform="matrix(0.101725, 0, 0, 0.101725, 4.483596, 174.247465)" fill-opacity="1" fill="#38b6ff" fill-rule="nonzero" stroke-linejoin="miter" d="M 346.222792 1105.179249 C 286.894666 1128.142498 227.489741 1150.990546 168.084816 1173.723394 C 163.976007 1180.443408 160.097599 1187.240222 156.372791 1194.152237 C 183.176048 1184.590617 209.940904 1174.913796 236.66736 1165.121776 C 337.045172 1128.296098 436.770183 1089.627216 535.765592 1049.191931 C 596.55292 1024.347079 657.033048 998.811025 717.244375 972.62217 C 711.177162 970.625365 705.071549 968.743761 698.889136 967.015758 C 676.425088 975.924576 653.961041 984.794995 631.496994 993.703814 C 536.533593 1031.143893 441.416592 1068.315171 346.222792 1105.179249 Z M 346.222792 1105.179249 " stroke="#c49a6d" stroke-width="1" stroke-opacity="1" stroke-miterlimit="10"/><path stroke-linecap="butt" transform="matrix(0.101725, 0, 0, 0.101725, 4.483596, 174.247465)" fill-opacity="1" fill="#38b6ff" fill-rule="nonzero" stroke-linejoin="miter" d="M 155.297589 1195.035439 L 155.91199 1193.883436 C 159.598398 1187.086622 163.515206 1180.213008 167.624015 1173.454593 L 167.739215 1173.339393 L 167.892815 1173.262593 C 229.332945 1149.761743 289.275471 1126.683295 346.030791 1104.718448 L 346.222792 1105.179249 L 346.030791 1104.718448 C 440.763791 1068.046371 536.725594 1030.529492 631.304993 993.204613 C 653.769041 984.334194 676.233088 975.463776 698.697135 966.554957 L 698.850736 966.478157 L 699.042736 966.516557 C 705.225149 968.28296 711.407562 970.202964 717.397975 972.161369 L 718.626778 972.583769 L 717.436375 973.08297 C 657.532249 999.156626 596.43772 1024.92308 535.919192 1049.652732 C 437.384584 1089.896017 336.776372 1128.910499 236.820961 1165.582577 C 210.593705 1175.220997 183.560048 1184.974618 156.526391 1194.613038 Z M 168.392016 1174.145795 C 164.552008 1180.443408 160.8656 1186.856222 157.409593 1193.230635 C 184.059249 1183.745815 210.632105 1174.145795 236.47536 1164.660975 C 336.392371 1127.988897 437.038983 1088.974415 535.573591 1048.73113 C 595.669718 1024.155078 656.303446 998.580624 715.823572 972.69897 C 710.29396 970.894166 704.610748 969.166162 698.927536 967.553359 C 676.501889 976.423778 654.076241 985.294196 631.650594 994.164615 C 537.109594 1031.451094 441.109392 1068.967973 346.376392 1105.64005 C 289.697872 1127.604897 229.832146 1150.644945 168.392016 1174.145795 Z M 168.392016 1174.145795 " stroke="#c49a6d" stroke-width="1" stroke-opacity="1" stroke-miterlimit="10"/><path stroke-linecap="butt" transform="matrix(0.101725, 0, 0, 0.101725, 4.483596, 174.247465)" fill-opacity="1" fill="#38b6ff" fill-rule="nonzero" stroke-linejoin="miter" d="M 405.973318 1216.539484 C 307.78431 1253.326762 209.326503 1289.461238 110.599894 1324.942913 C 109.524692 1331.086926 108.56469 1337.230939 107.719888 1343.451752 C 153.147184 1328.898121 198.45928 1313.96049 243.617775 1298.600457 C 362.734826 1258.126772 480.853476 1214.926681 597.973723 1168.961784 C 688.713114 1133.364909 778.799704 1096.19363 868.195093 1057.371148 C 862.895882 1052.839939 857.519871 1048.46233 852.067059 1044.199921 C 812.361375 1059.982354 772.617291 1075.687987 732.796407 1091.27842 C 624.200978 1133.86411 515.259948 1175.604998 405.973318 1216.539484 Z M 405.973318 1216.539484 " stroke="#c49a6d" stroke-width="1" stroke-opacity="1" stroke-miterlimit="10"/><path stroke-linecap="butt" transform="matrix(0.101725, 0, 0, 0.101725, 4.483596, 174.247465)" fill-opacity="1" fill="#38b6ff" fill-rule="nonzero" stroke-linejoin="miter" d="M 107.143887 1344.142954 L 107.220687 1343.374952 C 108.065489 1337.115739 109.025491 1330.894926 110.100693 1324.827713 L 110.139093 1324.558912 L 110.446294 1324.443712 C 209.096102 1289.000437 308.475512 1252.52036 405.781317 1216.040283 L 405.973318 1216.539484 L 405.781317 1216.040283 C 514.530347 1175.336197 624.508179 1133.172908 732.642807 1090.817619 C 770.735687 1075.918387 810.825372 1060.059154 851.875059 1043.73912 L 852.143859 1043.623919 L 852.33586 1043.81592 C 857.788671 1048.039929 863.241483 1052.455938 868.502294 1056.987148 L 869.116695 1057.486349 L 868.387094 1057.793549 C 779.644506 1096.347231 688.713114 1133.90251 598.165723 1169.422585 C 481.583077 1215.157081 362.350826 1258.779573 243.771375 1299.099658 C 199.342482 1314.19089 153.607985 1329.282122 107.873489 1343.912553 Z M 111.060695 1325.288514 C 110.023893 1331.010126 109.140691 1336.846938 108.33429 1342.722151 C 153.799986 1328.16852 199.265681 1313.154088 243.425775 1298.139656 C 362.005225 1257.857971 481.237477 1214.235479 597.781722 1168.500983 C 688.098713 1133.096108 778.761304 1095.656029 867.235091 1057.217548 C 862.243081 1052.955139 857.13587 1048.76953 851.951859 1044.775922 C 811.055773 1061.057556 771.004488 1076.87839 732.988408 1091.777621 C 624.85378 1134.13291 514.875948 1176.257799 406.165318 1217.000285 C 308.936313 1253.441962 209.633703 1289.845239 111.060695 1325.288514 Z M 111.060695 1325.288514 " stroke="#c49a6d" stroke-width="1" stroke-opacity="1" stroke-miterlimit="10"/><path stroke-linecap="butt" transform="matrix(0.101725, 0, 0, 0.101725, 4.483596, 174.247465)" fill-opacity="1" fill="#38b6ff" fill-rule="nonzero" stroke-linejoin="miter" d="M 339.771578 1068.007971 C 298.491491 1082.408001 257.057803 1096.19363 215.393716 1109.403258 C 206.331296 1119.69448 197.768078 1130.369702 189.704061 1141.390526 C 198.190479 1138.126519 206.676897 1134.862512 215.163315 1131.636905 C 310.472316 1095.041628 405.704517 1058.13915 500.744718 1020.929471 C 554.15923 1000.039827 607.535343 979.034983 660.834656 957.914938 C 652.156237 956.225335 643.362619 954.804532 634.5306 953.614129 C 609.647348 964.250952 584.687295 974.695774 559.612042 984.948596 C 487.074289 1014.516658 413.768534 1042.203116 339.771578 1068.007971 Z M 339.771578 1068.007971 " stroke="#c49a6d" stroke-width="1" stroke-opacity="1" stroke-miterlimit="10"/><path stroke-linecap="butt" transform="matrix(0.101725, 0, 0, 0.101725, 4.483596, 174.247465)" fill-opacity="1" fill="#38b6ff" fill-rule="nonzero" stroke-linejoin="miter" d="M 188.283258 1142.465728 L 189.28166 1141.083325 C 197.345677 1130.062502 205.985696 1119.310479 215.009715 1109.096058 L 215.086515 1108.980857 L 215.240115 1108.942457 C 256.789003 1095.771229 298.645091 1081.832 339.579578 1067.54717 L 339.771578 1068.007971 L 339.579578 1067.54717 C 413.269333 1041.857516 487.227889 1013.902257 559.420042 984.487795 C 584.188094 974.388573 609.378547 963.828551 634.3386 953.153328 L 634.4538 953.076528 L 634.6074 953.114928 C 643.401019 954.305331 652.233037 955.764534 660.911456 957.454137 L 662.601059 957.761338 L 661.026656 958.41414 C 605.96094 980.186985 552.124026 1001.34543 500.936718 1021.390272 C 406.318918 1058.407951 310.203516 1095.656029 215.355315 1132.097706 C 210.324905 1134.01771 205.256094 1135.937714 200.225684 1137.896118 Z M 215.662516 1109.825659 C 207.099298 1119.57928 198.843281 1129.832101 191.124864 1140.315323 L 199.880083 1136.936116 C 204.910493 1135.016112 209.940904 1133.096108 215.009715 1131.137704 C 309.857915 1094.734427 405.934918 1057.486349 500.591117 1020.46867 C 551.279224 1000.615829 604.578537 979.649384 659.068252 958.106939 C 650.965835 956.570936 642.748217 955.226933 634.6074 954.11333 C 609.685748 964.788553 584.533695 975.310175 559.804042 985.409396 C 487.57349 1014.823859 413.614934 1042.779118 339.925178 1068.507172 C 298.990692 1082.753602 257.173004 1096.692831 215.662516 1109.825659 Z M 215.662516 1109.825659 " stroke="#c49a6d" stroke-width="1" stroke-opacity="1" stroke-miterlimit="10"/><path stroke-linecap="butt" transform="matrix(0.101725, 0, 0, 0.101725, 4.483596, 174.247465)" fill-opacity="1" fill="#38b6ff" fill-rule="nonzero" stroke-linejoin="miter" d="M 377.250057 1136.244915 C 299.297893 1166.312178 220.884927 1195.265839 142.087961 1223.067498 C 138.555153 1230.977915 135.252746 1238.965132 132.18074 1247.029149 C 168.737617 1232.590718 205.332894 1218.190688 241.966572 1203.867458 C 348.488396 1162.24177 455.279022 1121.268883 562.300048 1080.871998 C 635.183401 1053.37754 708.143555 1026.190283 781.25731 999.271826 C 770.236486 993.703814 759.023663 988.519803 747.503638 983.834993 C 723.695588 994.279815 699.810738 1004.609437 675.887487 1014.862259 C 577.084079 1057.140748 477.551069 1097.614433 377.250057 1136.244915 Z M 377.250057 1136.244915 " stroke="#c49a6d" stroke-width="1" stroke-opacity="1" stroke-miterlimit="10"/><path stroke-linecap="butt" transform="matrix(0.101725, 0, 0, 0.101725, 4.483596, 174.247465)" fill-opacity="1" fill="#38b6ff" fill-rule="nonzero" stroke-linejoin="miter" d="M 131.297538 1247.91235 L 131.681539 1246.875548 C 134.753545 1238.811531 138.094352 1230.747514 141.62716 1222.875498 L 141.70396 1222.683497 L 141.93436 1222.606697 C 220.616127 1194.805038 299.720293 1165.582577 377.058057 1135.784114 C 476.898267 1097.307233 577.352879 1056.487946 675.695487 1014.401458 C 698.850736 1004.494237 722.965987 994.049415 747.311638 983.335792 L 747.503638 983.258992 L 747.695639 983.335792 C 759.177263 988.059002 770.505287 993.243013 781.48771 998.811025 L 782.486112 999.348626 L 781.41091 999.732627 C 707.913155 1026.804684 634.261799 1054.260742 562.492048 1081.332799 C 455.970223 1121.537684 348.181196 1162.894571 242.158572 1204.328258 C 207.214498 1217.998687 170.27362 1232.513918 132.33434 1247.48995 Z M 142.471962 1223.489899 C 139.131155 1230.939515 135.943948 1238.542731 133.025542 1246.145947 C 170.580821 1231.323515 207.176098 1216.923485 241.774571 1203.406657 C 347.835595 1161.972969 455.586222 1120.577682 562.108047 1080.411197 C 633.532198 1053.45434 706.837953 1026.151882 779.990107 999.195026 C 769.468485 993.857414 758.524462 988.865404 747.542039 984.372594 C 723.234787 995.009417 699.196337 1005.415839 676.079488 1015.32306 C 577.73688 1057.409548 477.243868 1098.267235 377.442057 1136.744116 L 377.250057 1136.244915 L 377.442057 1136.744116 C 300.142694 1166.504179 221.115328 1195.68824 142.471962 1223.489899 Z M 142.471962 1223.489899 " stroke="#c49a6d" stroke-width="1" stroke-opacity="1" stroke-miterlimit="10"/><path stroke-linecap="butt" transform="matrix(0.101725, 0, 0, 0.101725, 4.483596, 174.247465)" fill-opacity="1" fill="#38b6ff" fill-rule="nonzero" stroke-linejoin="miter" d="M 390.421285 1170.420987 C 300.987496 1204.82746 211.707308 1239.694733 122.61912 1274.984408 C 120.199915 1282.933224 118.01111 1290.958841 116.052706 1299.061258 C 162.017603 1282.510823 207.9441 1265.806788 253.832197 1248.949153 C 363.387628 1208.744268 472.597458 1167.732981 581.500088 1125.876893 C 664.751464 1093.928026 747.772439 1061.479957 830.601414 1028.571088 C 822.998198 1023.348677 815.241381 1018.395066 807.292565 1013.671856 C 775.305297 1025.422281 743.35643 1037.211106 711.407562 1049.076731 C 604.194536 1088.897615 497.17351 1129.3329 390.421285 1170.420987 Z M 390.421285 1170.420987 " stroke="#c49a6d" stroke-width="1" stroke-opacity="1" stroke-miterlimit="10"/><path stroke-linecap="butt" transform="matrix(0.101725, 0, 0, 0.101725, 4.483596, 174.247465)" fill-opacity="1" fill="#38b6ff" fill-rule="nonzero" stroke-linejoin="miter" d="M 115.323104 1299.82926 L 115.553505 1298.946058 C 117.473509 1290.958841 119.700714 1282.818024 122.158319 1274.830807 L 122.235119 1274.600407 L 122.427119 1274.523607 C 211.707308 1239.157132 301.832298 1203.982658 390.267685 1169.960186 C 496.482309 1129.1025 604.463337 1088.244814 711.253962 1048.61593 C 742.127627 1037.134306 774.422095 1025.230281 807.138964 1013.211055 L 807.369365 1013.134255 L 807.561365 1013.249455 C 815.471782 1017.972665 823.343798 1023.003076 830.908614 1028.148687 L 831.676616 1028.686288 L 830.793414 1029.031889 C 748.04124 1061.902358 664.213863 1094.657627 581.692089 1126.376094 C 473.28866 1168.001782 363.042027 1209.397069 254.024197 1249.448354 C 208.635301 1266.113989 162.248003 1282.933224 116.206306 1299.522059 Z M 123.041521 1275.330008 C 120.737516 1282.971624 118.587111 1290.651641 116.743907 1298.293257 C 162.516804 1281.781222 208.558501 1265.038787 253.678596 1248.488352 C 362.696426 1208.475467 472.943059 1167.08018 581.346488 1125.416092 C 663.561061 1093.851225 747.081238 1061.211156 829.564612 1028.455887 C 822.306996 1023.502277 814.818981 1018.740667 807.254165 1014.209457 C 774.614096 1026.190283 742.434828 1038.094308 711.599563 1049.537532 C 604.808937 1089.204816 496.827909 1130.024102 390.613285 1170.881788 L 390.421285 1170.420987 L 390.613285 1170.881788 C 302.254699 1204.86586 212.244909 1240.001934 123.041521 1275.330008 Z M 123.041521 1275.330008 " stroke="#c49a6d" stroke-width="1" stroke-opacity="1" stroke-miterlimit="10"/><path stroke-linecap="butt" transform="matrix(0.101725, 0, 0, 0.101725, 4.483596, 174.247465)" fill-opacity="1" fill="#38b6ff" fill-rule="nonzero" stroke-linejoin="miter" d="M 409.122124 1264.309185 C 308.513912 1300.827662 207.214498 1335.387735 105.223883 1367.912604 C 104.609482 1375.82302 104.263881 1383.733437 104.148681 1391.682254 C 157.486393 1373.557416 210.632105 1354.933376 263.662617 1335.848536 C 389.000482 1290.728441 513.339944 1242.95874 636.681005 1192.577834 C 698.313135 1167.387381 759.676464 1141.544126 820.770993 1115.04807 C 845.577445 1104.296047 870.345498 1093.428824 895.07515 1082.446401 C 892.195144 1079.527995 889.315138 1076.647989 886.358331 1073.844783 C 845.231845 1091.777621 803.913357 1109.403258 762.44127 1126.683295 C 645.781824 1175.259397 528.008775 1221.147494 409.122124 1264.309185 Z M 409.122124 1264.309185 " stroke="#c49a6d" stroke-width="1" stroke-opacity="1" stroke-miterlimit="10"/><path stroke-linecap="butt" transform="matrix(0.101725, 0, 0, 0.101725, 4.483596, 174.247465)" fill-opacity="1" fill="#38b6ff" fill-rule="nonzero" stroke-linejoin="miter" d="M 103.61108 1392.373455 L 103.64948 1391.682254 C 103.76468 1383.733437 104.148681 1375.74622 104.724682 1367.874204 L 104.724682 1367.528603 L 105.070283 1367.451803 C 206.868898 1334.926934 309.128313 1300.098061 408.930124 1263.848384 L 409.122124 1264.309185 L 408.930124 1263.848384 C 527.240774 1220.917093 646.127425 1174.606596 762.24927 1126.222494 C 803.068556 1109.211258 844.732644 1091.43202 886.166331 1073.383982 L 886.473532 1073.230382 L 886.703932 1073.460782 C 889.583938 1076.263988 892.540745 1079.143994 895.420751 1082.100801 L 895.919952 1082.600002 L 895.26715 1082.907202 C 870.499098 1093.889625 845.539045 1104.872049 820.962993 1115.508871 C 760.175665 1141.851327 698.236334 1167.963382 636.873005 1193.038635 C 514.107946 1243.18914 388.616481 1291.419642 263.816218 1336.309337 C 211.361707 1355.202177 157.678394 1373.979817 104.302281 1392.143055 Z M 105.684684 1368.296605 C 105.147083 1375.78462 104.801482 1383.387836 104.647882 1390.952652 C 157.831994 1372.904614 211.246507 1354.203775 263.470617 1335.387735 C 388.27088 1290.45964 513.762345 1242.267539 636.489004 1192.078633 C 697.852334 1167.04178 759.791664 1140.929725 820.578993 1114.587269 C 844.924644 1104.027247 869.692696 1093.160024 894.191948 1082.292801 C 891.542342 1079.604795 888.892737 1076.95519 886.243131 1074.420784 C 844.924644 1092.468822 803.337356 1110.17126 762.63327 1127.144096 C 646.511425 1175.528198 527.624774 1221.838695 409.275725 1264.769986 C 309.550714 1300.981262 207.406499 1335.810136 105.684684 1368.296605 Z M 105.684684 1368.296605 " stroke="#c49a6d" stroke-width="1" stroke-opacity="1" stroke-miterlimit="10"/></svg>