<svg xmlns="http://www.w3.org/2000/svg" xmlns:xlink="http://www.w3.org/1999/xlink" width="200" zoomAndPan="magnify" viewBox="0 0 150 328.49999" height="438" preserveAspectRatio="xMidYMid meet" version="1.0"><defs><clipPath id="ddf74a3c00"><path d="M 23 75.328125 L 123 75.328125 L 123 140 L 23 140 Z M 23 75.328125 " clip-rule="nonzero"/></clipPath><clipPath id="519c2b3048"><path d="M 0.113281 101 L 65 101 L 65 201 L 0.113281 201 Z M 0.113281 101 " clip-rule="nonzero"/></clipPath><clipPath id="6edfe008c0"><path d="M 0.113281 249 L 127 249 L 127 326 L 0.113281 326 Z M 0.113281 249 " clip-rule="nonzero"/></clipPath><clipPath id="a1ac36ccb6"><path d="M 40 227 L 149.886719 227 L 149.886719 294 L 40 294 Z M 40 227 " clip-rule="nonzero"/></clipPath></defs><path fill="#fffb9c" d="M 73.945312 159.46875 L 123.554688 160.222656 C 123.867188 194.652344 103.257812 222.699219 76.78125 223.863281 C 49.429688 225.066406 25.976562 197.207031 24.414062 161.648438 Z M 73.945312 159.46875 " fill-opacity="1" fill-rule="evenodd"/><g clip-path="url(#ddf74a3c00)"><path fill="#ee9a69" d="M 72.898438 75.335938 L 122.503906 76.085938 C 122.816406 110.519531 102.207031 138.5625 75.730469 139.730469 C 48.378906 140.933594 24.929688 113.074219 23.363281 77.515625 Z M 72.898438 75.335938 " fill-opacity="1" fill-rule="evenodd"/></g><path fill="#b6ddc7" d="M 84.265625 150.117188 L 85.21875 100.511719 C 119.652344 100.339844 147.613281 121.0625 148.671875 147.542969 C 149.761719 174.902344 121.808594 198.238281 86.242188 199.660156 Z M 84.265625 150.117188 " fill-opacity="1" fill-rule="evenodd"/><g clip-path="url(#519c2b3048)"><path fill="#b8db7c" d="M 0.125 150.820312 L 1.082031 101.214844 C 35.515625 101.046875 63.472656 121.769531 64.53125 148.25 C 65.625 175.605469 37.667969 198.945312 2.105469 200.363281 Z M 0.125 150.820312 " fill-opacity="1" fill-rule="evenodd"/></g><path fill="#fff500" d="M 80.65625 152.769531 L 130.265625 153.523438 L 131.332031 153.539062 L 131.339844 154.601562 C 131.5 172.058594 126.34375 187.910156 117.789062 199.550781 C 109.175781 211.269531 97.113281 218.742188 83.527344 219.339844 L 83.480469 219.34375 L 83.480469 219.339844 C 69.464844 219.941406 56.472656 213.128906 46.792969 201.628906 C 37.167969 190.195312 30.816406 174.109375 30.019531 156.089844 L 30.015625 156.042969 L 30.015625 154.996094 L 31.0625 154.949219 L 80.597656 152.769531 Z M 129.167969 155.683594 L 80.675781 154.945312 L 32.253906 157.078125 C 33.230469 174.167969 39.320312 189.378906 48.457031 200.230469 C 57.71875 211.234375 70.113281 217.746094 83.433594 217.160156 L 83.480469 217.15625 L 83.480469 217.160156 C 96.347656 216.578125 107.8125 209.445312 116.03125 198.261719 C 124.148438 187.214844 129.105469 172.234375 129.167969 155.683594 Z M 129.167969 155.683594 " fill-opacity="1" fill-rule="nonzero"/><path fill="#84c225" d="M 5.9375 141.332031 L 6.894531 91.726562 L 6.914062 90.660156 L 7.976562 90.65625 C 25.4375 90.570312 41.265625 95.789062 52.871094 104.394531 C 64.558594 113.054688 71.976562 125.148438 72.519531 138.734375 L 72.523438 138.777344 L 72.523438 138.78125 L 72.519531 138.78125 C 73.066406 152.796875 66.203125 165.765625 54.664062 175.398438 C 43.191406 184.976562 27.078125 191.261719 9.050781 191.980469 L 9.007812 191.984375 L 7.957031 191.984375 L 7.914062 190.933594 L 5.9375 141.390625 Z M 9.050781 92.835938 L 8.113281 141.324219 L 10.046875 189.753906 C 27.140625 188.847656 42.371094 182.816406 53.261719 173.722656 C 64.308594 164.503906 70.875 152.140625 70.34375 138.820312 L 70.339844 138.78125 L 70.339844 138.777344 C 69.8125 125.90625 62.726562 114.410156 51.574219 106.144531 C 40.5625 97.980469 25.601562 92.964844 9.050781 92.835938 Z M 9.050781 92.835938 " fill-opacity="1" fill-rule="nonzero"/><g clip-path="url(#6edfe008c0)"><path fill="#8c52ff" d="M 1.300781 249.902344 C 0.128906 250.835938 1.773438 253.285156 1.757812 254.6875 C 1.753906 254.777344 1.757812 254.867188 1.769531 254.960938 C 5.808594 280.429688 16.972656 309.359375 41.542969 320.859375 C 41.578125 320.875 41.609375 320.890625 41.644531 320.902344 C 58.933594 327.503906 78.300781 326.355469 95.386719 319.679688 C 120.269531 309.320312 127.515625 279.421875 126.539062 254.589844 C 126.53125 254.453125 126.550781 254.316406 126.589844 254.183594 C 127.5 251.050781 105.914062 253.378906 102.636719 252.457031 C 102.550781 252.433594 102.460938 252.417969 102.375 252.410156 C 75.246094 250.085938 48.015625 252.484375 20.933594 249.78125 C 14.285156 249.460938 8.886719 249.078125 1.949219 249.664062 C 1.714844 249.683594 1.480469 249.757812 1.296875 249.90625 Z M 1.300781 249.902344 " fill-opacity="1" fill-rule="nonzero"/></g><g clip-path="url(#a1ac36ccb6)"><path fill="#c3f498" d="M 149.027344 292.503906 C 149.863281 291.679688 148.730469 289.886719 148.597656 288.664062 C 148.53125 288.054688 148.449219 287.449219 148.347656 286.84375 C 144.675781 265.175781 134.992188 240.976562 114.171875 231.261719 C 94.808594 224.355469 70.183594 226.171875 54.996094 241.203125 C 43.011719 253.277344 40.523438 272.261719 40.8125 288.738281 C 40.707031 291.042969 46.71875 289.980469 48.5 290.359375 C 71.277344 290.542969 94.054688 291.878906 116.859375 291.550781 C 127.558594 292.34375 137.519531 293.53125 148.371094 292.777344 C 148.613281 292.761719 148.851562 292.671875 149.027344 292.503906 Z M 149.027344 292.503906 " fill-opacity="1" fill-rule="nonzero"/></g><path fill="#f4d916" d="M 14.8125 13.917969 C 16.289062 12.351562 18.890625 12.976562 19.625 15.003906 C 29.242188 33.226562 55.496094 32.863281 73.40625 31.40625 C 85.691406 30.371094 96.816406 23.777344 105.761719 15.609375 C 110.179688 11.96875 126.558594 0 125.390625 13.015625 C 124.582031 18.429688 123.539062 23.679688 122.785156 29.078125 C 122.433594 30.992188 121.390625 32.84375 120.417969 34.632812 C 119.90625 35.570312 119.441406 36.539062 119.03125 37.527344 C 104.773438 71.902344 61.371094 75.316406 34.136719 53.789062 C 22.671875 44.359375 6.875 30.105469 14.8125 13.917969 Z M 14.8125 13.917969 " fill-opacity="1" fill-rule="nonzero"/></svg>