<svg width="178" height="153" viewBox="0 0 178 153" fill="none" xmlns="http://www.w3.org/2000/svg">
<path d="M88.0295 137.7C88.5687 137.7 89.1078 137.573 89.647 137.318C90.1861 137.062 90.5905 136.808 90.8601 136.553L157.175 73.8225C158.793 72.2925 159.974 70.5713 160.718 68.6588C161.462 66.7463 161.831 64.8338 161.826 62.9213C161.826 60.8813 161.456 58.9356 160.718 57.0843C159.979 55.233 158.798 53.6087 157.175 52.2113L122.805 19.6987C121.322 18.1687 119.602 17.0544 117.645 16.3557C115.688 15.657 113.636 15.3051 111.491 15.3C109.469 15.3 107.447 15.6519 105.425 16.3557C103.403 17.0595 101.584 18.1738 99.9663 19.6987L97.7423 21.8025L112.704 36.1462C114.725 37.9313 116.208 39.9713 117.152 42.2663C118.095 44.5613 118.567 46.9838 118.567 49.5338C118.567 54.8888 116.648 59.3844 112.809 63.0207C108.97 66.657 104.217 68.4726 98.551 68.4675C95.8553 68.4675 93.262 68.0212 90.7711 67.1287C88.2802 66.2362 86.0886 64.8975 84.1962 63.1125L69.0245 48.96L33.6429 82.4287C33.2385 82.8112 32.9366 83.2269 32.7371 83.6757C32.5376 84.1245 32.4352 84.6013 32.4298 85.1063C32.4298 86.1263 32.8342 87.0519 33.6429 87.8832C34.4516 88.7145 35.3951 89.1276 36.4734 89.1225C37.0126 89.1225 37.5517 88.995 38.0909 88.74C38.63 88.485 39.0344 88.23 39.304 87.975L66.8005 61.965L78.1227 72.675L50.8283 98.685C50.4239 99.0675 50.122 99.4831 49.9225 99.9319C49.723 100.381 49.6206 100.858 49.6152 101.363C49.6152 102.382 50.0195 103.275 50.8283 104.04C51.637 104.805 52.5805 105.188 53.6588 105.188C54.1979 105.188 54.7371 105.06 55.2762 104.805C55.8154 104.55 56.2197 104.295 56.4893 104.04L83.9859 78.2213L95.308 88.9313L68.0136 114.941C67.6093 115.196 67.3073 115.579 67.1079 116.089C66.9084 116.599 66.8059 117.109 66.8005 117.619C66.8005 118.639 67.2049 119.531 68.0136 120.296C68.8223 121.061 69.7659 121.444 70.8442 121.444C71.3833 121.444 71.8901 121.347 72.3646 121.153C72.839 120.959 73.2757 120.674 73.6747 120.296L101.171 94.4775L112.493 105.188L84.9968 131.197C84.5925 131.58 84.2905 131.993 84.091 132.437C83.8916 132.881 83.7891 133.36 83.7837 133.875C83.7837 134.895 84.2231 135.788 85.1019 136.553C85.9808 137.318 86.9566 137.7 88.0295 137.7ZM87.8274 153C82.8402 153 78.4273 151.439 74.5885 148.318C70.7498 145.197 68.4908 141.275 67.8114 136.553C63.2287 135.915 59.3872 134.13 56.2871 131.197C53.187 128.265 51.3 124.631 50.6261 120.296C46.0433 119.659 42.2369 117.843 39.2069 114.849C36.1769 111.856 34.3222 108.253 33.6429 104.04C28.521 103.403 24.3426 101.299 21.1077 97.7287C17.8728 94.1587 16.2553 89.9512 16.2553 85.1063C16.2553 82.5563 16.7621 80.1031 17.7757 77.7469C18.7893 75.3908 20.2369 73.3176 22.1186 71.5275L69.0245 27.3487L95.5102 52.4025C95.7798 52.785 96.1842 53.0732 96.7233 53.267C97.2625 53.4608 97.8016 53.5551 98.3407 53.55C99.5538 53.55 100.565 53.2006 101.373 52.5019C102.182 51.8032 102.587 50.8776 102.587 49.725C102.587 49.215 102.484 48.705 102.279 48.195C102.074 47.685 101.772 47.3025 101.373 47.0475L72.4616 19.6987C70.9789 18.1687 69.2618 17.0544 67.31 16.3557C65.3583 15.657 63.3015 15.3051 61.1395 15.3C59.1177 15.3 57.0959 15.6519 55.0741 16.3557C53.0522 17.0595 51.2326 18.1738 49.6152 19.6987L21.1077 46.8563C19.8946 48.0037 18.8837 49.3425 18.075 50.8725C17.2662 52.4025 16.7271 53.9325 16.4575 55.4625C16.1879 56.9925 16.1879 58.5556 16.4575 60.152C16.7271 61.7482 17.2662 63.2451 18.075 64.6425L6.34848 75.735C4.05709 72.8025 2.37225 69.5844 1.29396 66.0807C0.215659 62.577 -0.188702 59.0376 0.0808724 55.4625C0.350447 51.8874 1.29396 48.4143 2.9114 45.0432C4.52885 41.6721 6.75284 38.6427 9.58337 35.955L38.0909 8.98875C41.3258 6.05625 44.9327 3.825 48.9116 2.295C52.8905 0.765 56.9665 0 61.1395 0C65.3125 0 69.3912 0.765 73.3755 2.295C77.3598 3.825 80.8966 6.05625 83.9859 8.98875L86.2099 11.0925L88.4339 8.98875C91.6688 6.05625 95.2757 3.825 99.2546 2.295C103.234 0.765 107.309 0 111.482 0C115.656 0 119.734 0.765 123.718 2.295C127.703 3.825 131.24 6.05625 134.329 8.98875L168.497 41.31C171.598 44.2425 173.956 47.6213 175.574 51.4463C177.191 55.2713 178 59.16 178 63.1125C178 67.065 177.191 70.9231 175.574 74.687C173.956 78.4507 171.598 81.7963 168.497 84.7237L102.182 147.262C100.295 149.048 98.1062 150.45 95.6153 151.47C93.1245 152.49 90.5285 153 87.8274 153Z" fill="#729652"/>
</svg>
