<svg width="191" height="123" viewBox="0 0 191 123" fill="none" xmlns="http://www.w3.org/2000/svg">
<path d="M7 61.6436C60.0357 -11.2145 130.75 -11.2145 183.786 61.6436C130.75 134.502 60.0357 134.502 7 61.6436Z" stroke="#619BA4" stroke-width="13" stroke-linejoin="round"/>
<path d="M124.857 61.6436C124.857 68.8897 121.753 75.8391 116.227 80.963C110.702 86.0868 103.207 88.9653 95.3929 88.9653C87.5785 88.9653 80.0841 86.0868 74.5585 80.963C69.0328 75.8391 65.9286 68.8897 65.9286 61.6436C65.9286 54.3974 69.0328 47.448 74.5585 42.3241C80.0841 37.2003 87.5785 34.3218 95.3929 34.3218C103.207 34.3218 110.702 37.2003 116.227 42.3241C121.753 47.448 124.857 54.3974 124.857 61.6436Z" stroke="#619BA4" stroke-width="13" stroke-linejoin="round"/>
</svg>
