<svg width="500" height="500" viewBox="0 0 500 500" fill="none" xmlns="http://www.w3.org/2000/svg">
<path d="M295.875 200.662C295.521 200.875 295.172 201.089 294.823 201.302C295.927 203.068 297.031 204.839 298.135 206.604C298.479 206.396 298.818 206.188 299.161 205.979C298.068 204.208 296.974 202.438 295.875 200.662ZM192.089 263.578C192.495 263.349 192.896 263.115 193.297 262.885C192.729 259.912 192.161 256.932 191.589 253.958C191.187 254.047 190.792 254.135 190.391 254.219C190.958 257.339 191.526 260.458 192.089 263.578ZM299.99 209.115C299.484 209.26 299.172 209.724 299.224 210.224C299.578 213.729 299.927 217.234 304.057 219.662L301.276 209.828C301.12 209.276 300.547 208.958 299.99 209.115ZM278.437 230.469C270.958 229.224 266.292 232.156 262.318 236.776C260.302 239.125 260.219 241.339 261.646 244.026C265.672 251.635 275.932 257.474 284.427 256.891C288.687 256.594 291.807 254.62 293.391 250.672C297.562 240.266 300.109 230.021 296.536 218.443C294.115 210.615 291.604 203.906 285.266 198.182C279.042 192.557 272.25 190.708 264.411 190.276C254.729 189.74 246.208 193.078 237.401 196.609C225.057 201.563 217.542 209.62 215.906 222.875C214.766 232.12 213.552 241.359 212.682 250.63C211.812 259.958 215.651 268.51 217.823 277.307C218.74 281.01 220.437 284.531 221.875 288.094C224.516 294.615 227.75 300.745 233.141 305.531C234.63 306.854 235.703 308.651 236.964 310.229C236.615 310.698 236.26 311.172 235.911 311.641C233.786 310.406 231.505 309.375 229.562 307.906C219.979 300.63 210.495 293.234 200.964 285.891C193.74 280.318 189.922 272.458 187.479 264.104C183.885 251.802 183.75 238.964 183.354 226.271C182.943 213.172 187.464 201.005 193.177 189.646C195.943 184.135 201.568 179.75 206.615 175.76C214.187 169.776 223.401 166.557 232.312 163.135C245.786 157.958 259.755 158.818 273.573 161.672C279.667 162.927 285.88 164.547 291.432 167.25C300.422 171.641 308.76 177.073 315.036 185.38C323.208 196.214 329.812 207.792 333.948 220.672C338.297 234.229 339.641 248.339 335.49 261.912C332.88 270.458 329.557 279.531 321.182 285.063C317.599 287.427 314.609 290.75 310.917 292.885C300.177 299.094 288.635 300.313 276.661 297.162C272.229 296 267.839 294.656 263.432 293.391C260.208 292.458 257.141 291.594 255.016 288.406C253.964 286.823 251.443 286.193 249.542 285.214C245.667 283.224 242.495 280.875 241.214 276.229C238.557 266.62 232.875 257.922 232.589 247.578C232.281 236.583 236.094 226.776 241.479 217.505C243.432 214.13 246.26 211.526 250.635 211.26C254.917 211.005 259.172 210.313 263.453 210.115C264.766 210.052 266.365 210.682 267.427 211.51C273.224 216.037 276.849 221.912 278.437 230.469Z" fill="#FFE24F"/>
<path d="M352.219 198.396C349.354 193.401 346.875 189.083 344.526 184.995C345.036 183.865 345.182 183.073 345.651 182.578C350.338 177.677 355.786 173.552 359.724 167.849C361.604 165.125 364.854 164.089 368.323 163.234C372.104 162.307 375.484 159.682 378.969 157.693C380.151 157.016 381.078 155.349 382.224 155.245C389.114 154.625 396.031 154.135 402.937 154.109C404.015 154.109 405.838 156.594 406.057 158.109C407.109 165.396 405.411 172.615 399.755 177.073C387.047 187.073 373.281 195.495 357.015 198.703C356.088 198.885 355.109 198.906 354.161 198.849C353.458 198.813 352.765 198.531 352.219 198.396Z" fill="#FFE24F"/>
<path d="M291.224 73.3594C293.656 77.0313 295.563 79.1823 296.615 81.6927C297.964 84.9063 299.172 88.3542 299.479 91.7813C300.656 104.953 297.578 117.646 294.443 130.297C293.917 132.401 293.36 134.5 292.698 136.563C290.599 143.073 288.792 144.214 281.719 143.635C280.755 143.557 279.735 143.318 278.839 143.542C271.432 145.344 269.979 142.453 269.042 135.641C268.167 129.24 268.208 122.661 268.412 116.177C268.735 106.135 274.016 97.8177 279.037 89.6302C282.5 83.9844 286.974 78.9583 291.224 73.3594Z" fill="#FFE24F"/>
<path d="M310.37 318.141C315.755 314.339 319.265 314.943 324.036 318.38C333.838 325.443 340.765 334.11 344.547 345.479C347.125 353.235 350.104 360.87 352.344 368.714C353.724 373.568 352.833 374.406 348.13 376.177C345.073 377.328 341.625 380.016 339.094 379.318C336.469 378.589 334.864 374.5 332.604 372.084C329.177 368.433 324.672 365.49 322.198 361.313C314.359 348.084 309.625 333.802 310.37 318.141Z" fill="#FFE24F"/>
<mask id="mask0_1279_25" style="mask-type:luminance" maskUnits="userSpaceOnUse" x="352" y="225" width="68" height="31">
<path d="M352 225.333H419.604V256H352V225.333Z" fill="white"/>
</mask>
<g mask="url(#mask0_1279_25)">
<path d="M353.042 244.917C353.969 242.136 354.932 240.36 355.109 238.511C355.786 231.469 360.495 228.573 366.557 227.339C380.333 224.526 393.989 225.36 407.14 230.302C410.802 231.677 414.083 234.5 417.026 237.209C419.906 239.86 419.182 243.917 415.854 246.537C409.479 251.563 402.417 254.761 394.156 255.407C382.906 256.282 371.953 255.547 361.672 250.547C358.557 249.026 355.818 246.756 353.042 244.917Z" fill="#FFE24F"/>
</g>
<path d="M208.974 80.6772C216.177 83.6825 222.016 87.7866 226.458 93.521C229.969 98.0575 232.823 103.099 235.974 107.917C241.781 116.813 243.047 126.745 242.031 136.979C241.682 140.505 239.87 143.886 238.432 148.208C236.094 147.261 233.177 146.703 231.042 145.11C213.047 131.693 204.463 113.401 203.776 91.2085C203.734 89.9377 204.338 88.521 205 87.3804C205.677 86.2033 206.937 85.37 207.682 84.2189C208.271 83.3127 208.463 82.146 208.974 80.6772Z" fill="#FFE24F"/>
<path d="M344.755 287.802C348.13 284.937 351.057 281.865 354.552 279.724C356.193 278.714 359.208 278.786 361.125 279.557C373.052 284.318 383.177 291.568 392.271 300.812C397.511 306.146 400.052 311.964 401.625 318.771C402.36 321.948 401.453 323.844 398.177 324.583C389.516 326.536 381.12 325.021 373.958 320.411C362.094 312.776 352.547 302.589 345.61 290.156C345.156 289.344 344.964 288.396 344.755 287.802Z" fill="#FFE24F"/>
<path d="M312.12 149.729C313.187 146.604 313.594 144.125 314.792 142.12C318.239 136.37 321.698 130.573 325.724 125.224C330.193 119.271 335.172 113.693 340.156 108.146C342.781 105.219 345.896 102.833 350.177 105.542C350.547 105.771 351.13 105.636 351.594 105.755C361.411 108.219 362.859 111.198 357.573 120.276C352.62 128.781 347.203 137.042 341.599 145.136C336.989 151.787 331.89 158.104 326.833 164.427C324.432 167.432 321.411 167.865 319.625 164.974C316.578 160.047 314.437 154.557 312.12 149.729Z" fill="#FFE24F"/>
<path d="M144.969 344.458C138.068 344.755 136.969 343.104 137.526 337.886C138.016 333.297 139.995 329.948 143.094 326.724C149.927 319.641 156.235 312.031 163.261 305.151C166.63 301.854 171.13 299.693 175.156 297.078C178.011 295.224 180.667 295.901 183.084 297.99C185.063 299.703 187.162 301.323 188.886 303.271C191.787 306.537 190.693 310.531 188.823 313.36C184.474 319.927 180.052 326.735 174.36 332.052C165.886 339.964 155.031 343.479 144.969 344.458Z" fill="#FFE24F"/>
<mask id="mask1_1279_25" style="mask-type:luminance" maskUnits="userSpaceOnUse" x="93" y="169" width="66" height="37">
<path d="M93.604 169.333H158.667V205.333H93.604V169.333Z" fill="white"/>
</mask>
<g mask="url(#mask1_1279_25)">
<path d="M93.5986 179.063C100.942 170.521 108.573 167.917 118.192 171.969C126.406 175.438 134.948 178.157 143.078 181.802C147.182 183.646 150.713 186.787 154.474 189.386C155.255 189.927 156.01 190.594 156.593 191.344C160.541 196.443 157.994 203.521 151.692 203.875C134.364 204.839 117.958 202.078 104.484 189.927C100.776 186.584 97.4007 182.88 93.5986 179.063Z" fill="#FFE24F"/>
</g>
<path d="M273.219 398.313C269.818 393.307 266.776 388.266 265.698 382.161C265.078 378.63 263.901 375.193 262.864 371.74C258.359 356.75 261.672 343.328 270.901 331.047C272.411 329.031 273.76 326.896 275.443 324.438C282.172 329.698 285.198 336.318 285.745 343.849C286.193 350.036 285.807 356.328 285.302 362.531C284.5 372.292 284.463 382.141 280.932 391.573C279.484 395.453 277.375 397.521 273.219 398.313Z" fill="#FFE24F"/>
<path d="M201.807 393.203C201.021 390.781 199.849 388.432 199.536 385.974C197.802 372.266 200.052 359.172 206.151 346.76C206.578 345.896 206.984 345.021 207.453 344.182C213.453 333.427 214.74 330.151 229.828 334.505C232.734 349.547 228.245 363.427 221.849 376.708C218.172 384.339 210.125 390.203 201.807 393.203Z" fill="#FFE24F"/>
<path d="M154.74 105.505C156.87 105.995 158.984 105.87 160.214 106.854C171.161 115.625 181.443 124.985 185.63 139.12C188.193 147.776 187.943 156.526 186.385 165.287C185.802 168.568 183.995 169.542 181.286 167.755C177.693 165.386 173.682 163.068 171.193 159.729C165.901 152.646 160.641 145.297 156.911 137.339C152.344 127.604 152.182 116.969 154.74 105.505Z" fill="#FFE24F"/>
<path d="M97.9429 268.953C100.172 266.302 101.333 264.172 103.12 262.922C115.823 254.031 130.224 249.672 145.427 247.63C149.172 247.13 152.938 246.818 156.594 246.432C158.625 251.927 158.557 256.667 157.417 261.599C156.662 264.88 155.49 267 152.141 268.552C143.339 272.625 134.505 276.417 124.698 276.901C121.464 277.062 118.021 276.682 114.953 275.693C109.531 273.943 104.328 271.526 97.9429 268.953Z" fill="#FFE24F"/>
</svg>
